<svg width="86" height="20" viewBox="0 0 86 20" fill="none" xmlns="http://www.w3.org/2000/svg">
<path d="M49.747 11.0053C48.7433 11.324 47.7383 11.6387 46.7358 11.9627C46.6872 11.9801 46.6356 11.9871 46.5841 11.9834C46.5327 11.9797 46.4826 11.9653 46.4369 11.9411C46.3913 11.9168 46.351 11.8833 46.3188 11.8427C46.2866 11.802 46.2631 11.755 46.2498 11.7047C46.2364 11.6544 46.2335 11.6019 46.2413 11.5504C46.249 11.4989 46.2673 11.4496 46.2948 11.4056C46.3223 11.3615 46.3586 11.3237 46.4013 11.2946C46.4441 11.2654 46.4923 11.2454 46.543 11.236C46.8917 11.16 47.2351 11.0533 47.5771 10.952C48.2348 10.756 48.8886 10.552 49.5423 10.344C49.5858 10.3285 49.632 10.322 49.6781 10.3249C49.7241 10.3278 49.7691 10.34 49.8104 10.3609C49.8516 10.3818 49.8883 10.4108 49.9182 10.4463C49.9481 10.4818 49.9706 10.523 49.9844 10.5675C49.9981 10.612 50.0029 10.6588 49.9983 10.7051C49.9938 10.7515 49.98 10.7964 49.9578 10.8373C49.9357 10.8782 49.9056 10.9141 49.8694 10.943C49.8332 10.9718 49.7915 10.993 49.747 11.0053ZM46.7438 11.96C46.3766 12.088 45.9949 12.176 45.6146 12.2533C45.5602 12.2655 45.504 12.2666 45.4493 12.2564C45.3946 12.2462 45.3424 12.2249 45.296 12.1939C45.2495 12.163 45.2097 12.1229 45.179 12.076C45.1482 12.0292 45.1271 11.9766 45.1169 11.9214C45.1067 11.8661 45.1076 11.8093 45.1196 11.7545C45.1316 11.6996 45.1544 11.6477 45.1867 11.6019C45.2189 11.5561 45.26 11.5174 45.3074 11.4879C45.3548 11.4585 45.4077 11.439 45.4627 11.4306C45.8262 11.3691 46.189 11.3033 46.551 11.2333C46.6434 11.2161 46.7389 11.2347 46.8183 11.2854C46.8978 11.336 46.9554 11.4151 46.9797 11.5068C47.0041 11.5984 46.9933 11.696 46.9496 11.78C46.9058 11.864 46.8323 11.9282 46.7438 11.96ZM45.6146 12.2533C45.0652 12.368 44.5078 12.44 43.9505 12.5C43.8387 12.5048 43.7293 12.4665 43.6446 12.3928C43.5598 12.319 43.5061 12.2155 43.4943 12.1032C43.4825 11.9908 43.5136 11.8782 43.5811 11.7882C43.6487 11.6982 43.7478 11.6376 43.8581 11.6187L43.8686 11.6173C44.4025 11.5793 44.9344 11.517 45.4627 11.4306C45.5709 11.4103 45.6827 11.4342 45.7735 11.4971C45.8643 11.56 45.9266 11.6567 45.9467 11.766C45.9669 11.8752 45.9432 11.9881 45.8809 12.0798C45.8186 12.1714 45.7228 12.233 45.6146 12.2533ZM43.9505 12.5C43.4777 12.5507 43.0062 12.6013 42.5334 12.6373C42.4727 12.6406 42.412 12.6317 42.3546 12.6112C42.2973 12.5908 42.2446 12.5591 42.1994 12.5181C42.1542 12.477 42.1174 12.4274 42.0913 12.372C42.0651 12.3167 42.0499 12.2566 42.0467 12.1953C42.0435 12.134 42.0523 12.0727 42.0726 12.0149C42.0928 11.957 42.1242 11.9037 42.1648 11.8581C42.2055 11.8125 42.2546 11.7754 42.3095 11.7489C42.3644 11.7225 42.4238 11.7072 42.4845 11.704C42.9468 11.6907 43.409 11.6533 43.8686 11.6173C43.9806 11.6137 44.0898 11.6534 44.1738 11.7283C44.2578 11.8032 44.3103 11.9077 44.3206 12.0204C44.3309 12.133 44.2982 12.2454 44.2292 12.3346C44.1601 12.4237 44.06 12.4829 43.9492 12.5H43.9505ZM42.5334 12.6373C42.1478 12.6666 41.7595 12.6613 41.3738 12.6667C40.5418 12.6773 39.7111 12.68 38.8804 12.684C38.8172 12.6842 38.7545 12.6718 38.696 12.6475C38.6376 12.6232 38.5844 12.5876 38.5396 12.5426C38.4948 12.4976 38.4592 12.4441 38.4348 12.3852C38.4105 12.3263 38.3978 12.2631 38.3977 12.1993C38.3975 12.1355 38.4098 12.0723 38.4338 12.0132C38.4578 11.9542 38.4931 11.9005 38.5377 11.8553C38.5823 11.81 38.6353 11.7741 38.6936 11.7495C38.7519 11.7249 38.8145 11.7122 38.8777 11.712H38.8804C40.0809 11.7146 41.284 11.7413 42.4859 11.7053C42.6069 11.7015 42.7246 11.7458 42.8136 11.8287C42.9026 11.9115 42.9559 12.0263 42.9619 12.1484C42.968 12.2705 42.9264 12.3901 42.846 12.4816C42.7656 12.573 42.6529 12.6289 42.5321 12.6373H42.5334ZM38.8804 12.684C37.6257 12.688 36.3684 12.7107 35.1151 12.6813C34.9858 12.6788 34.8628 12.6246 34.7732 12.5306C34.6835 12.4366 34.6345 12.3105 34.637 12.18C34.6394 12.0495 34.6931 11.9253 34.7863 11.8348C34.8794 11.7443 35.0043 11.6948 35.1336 11.6973C36.3816 11.716 37.631 11.7106 38.8804 11.712C39.008 11.712 39.1305 11.7632 39.2208 11.8543C39.311 11.9455 39.3618 12.0691 39.3618 12.198C39.3618 12.3269 39.311 12.4505 39.2208 12.5416C39.1305 12.6328 39.008 12.684 38.8804 12.684ZM35.1151 12.6813C34.5802 12.668 34.0453 12.628 33.5117 12.5813C33.3846 12.5709 33.2668 12.5099 33.1842 12.4117C33.1016 12.3136 33.061 12.1864 33.0713 12.058C33.0816 11.9296 33.1421 11.8107 33.2393 11.7273C33.3365 11.6439 33.4625 11.6029 33.5897 11.6133C34.1034 11.6533 34.6185 11.6893 35.1336 11.6973C35.2628 11.6993 35.386 11.753 35.476 11.8466C35.5661 11.9402 35.6156 12.0662 35.6136 12.1967C35.6117 12.3271 35.5585 12.4515 35.4658 12.5424C35.373 12.6333 35.2483 12.6833 35.119 12.6813H35.1137H35.1151ZM33.5117 12.5813C32.6965 12.5092 31.8828 12.4202 31.0711 12.3146C30.9455 12.2987 30.8314 12.2331 30.7537 12.1322C30.6761 12.0313 30.6413 11.9034 30.6571 11.7767C30.6728 11.6499 30.7378 11.5346 30.8378 11.4562C30.9377 11.3778 31.0644 11.3427 31.19 11.3586C31.9877 11.4586 32.788 11.5507 33.5897 11.6133C33.7168 11.6232 33.8349 11.6837 33.9178 11.7815C34.0008 11.8792 34.0419 12.0063 34.0321 12.1346C34.0223 12.263 33.9624 12.3822 33.8655 12.4659C33.7687 12.5497 33.6429 12.5912 33.5157 12.5813H33.5117ZM31.0711 12.3146C30.4213 12.232 29.7702 12.1546 29.1231 12.048C29.0038 12.0224 28.8988 11.9515 28.8298 11.8499C28.7608 11.7484 28.7331 11.6239 28.7525 11.5024C28.7718 11.3808 28.8367 11.2714 28.9337 11.1967C29.0307 11.1221 29.1524 11.0879 29.2736 11.1013C29.9102 11.2027 30.5508 11.2786 31.1886 11.3586C31.3105 11.3786 31.4199 11.4454 31.4939 11.5451C31.568 11.6448 31.6008 11.7695 31.5856 11.8932C31.5704 12.0168 31.5082 12.1297 31.4123 12.208C31.3163 12.2864 31.1941 12.3254 31.0711 12.3146ZM29.1231 12.048C28.6952 11.9786 28.2686 11.8973 27.842 11.8133C27.7228 11.7845 27.6192 11.7102 27.5529 11.6061C27.4865 11.5019 27.4627 11.3759 27.4862 11.2544C27.5097 11.1329 27.5788 11.0253 27.6791 10.954C27.7794 10.8828 27.903 10.8534 28.0243 10.872C28.4403 10.9547 28.8563 11.0333 29.2736 11.1013C29.3381 11.1077 29.4006 11.1274 29.4573 11.159C29.5139 11.1907 29.5636 11.2337 29.6032 11.2854C29.6428 11.3372 29.6715 11.3965 29.6876 11.4599C29.7037 11.5232 29.7068 11.5892 29.6967 11.6538C29.6866 11.7184 29.6635 11.7802 29.6289 11.8355C29.5943 11.8907 29.5489 11.9383 29.4954 11.9752C29.442 12.0121 29.3816 12.0376 29.318 12.0501C29.2544 12.0626 29.189 12.0619 29.1257 12.048H29.1231ZM27.842 11.8133C27.3137 11.708 26.7855 11.5893 26.2625 11.456C26.2001 11.442 26.1411 11.4156 26.089 11.3782C26.037 11.3409 25.9928 11.2933 25.9592 11.2385C25.9257 11.1836 25.9033 11.1225 25.8935 11.0588C25.8837 10.995 25.8867 10.9299 25.9022 10.8674C25.9177 10.8048 25.9455 10.746 25.984 10.6945C26.0224 10.643 26.0706 10.5997 26.1259 10.5673C26.1811 10.535 26.2423 10.5141 26.3057 10.5059C26.369 10.4978 26.4334 10.5026 26.4949 10.52H26.5002C27.0047 10.6533 27.5132 10.7707 28.0243 10.872C28.0877 10.8817 28.1485 10.9043 28.203 10.9384C28.2575 10.9724 28.3047 11.0173 28.3416 11.0702C28.3785 11.1231 28.4044 11.1831 28.4178 11.2464C28.4312 11.3097 28.4317 11.3751 28.4194 11.4386C28.4071 11.5021 28.3822 11.5625 28.3462 11.6161C28.3102 11.6696 28.2638 11.7153 28.2099 11.7503C28.156 11.7853 28.0956 11.8089 28.0323 11.8198C27.9691 11.8306 27.9044 11.8284 27.842 11.8133ZM26.2625 11.456C25.8663 11.356 25.4674 11.256 25.0752 11.1373C24.9515 11.1 24.8476 11.0146 24.7863 10.9C24.725 10.7853 24.7113 10.6508 24.7483 10.526C24.7852 10.4012 24.8698 10.2963 24.9834 10.2344C25.0969 10.1725 25.2302 10.1587 25.3538 10.196L25.3631 10.1987C25.7381 10.32 26.1211 10.42 26.5002 10.52C26.5611 10.5357 26.617 10.5633 26.6673 10.6013C26.7176 10.6393 26.76 10.6869 26.792 10.7414C26.8241 10.796 26.8452 10.8564 26.8542 10.9191C26.8631 10.9819 26.8598 11.0459 26.8442 11.1073C26.8287 11.1688 26.8013 11.2265 26.7637 11.2773C26.7261 11.3281 26.6789 11.3709 26.6249 11.4033C26.5709 11.4357 26.511 11.457 26.4489 11.466C26.3867 11.4751 26.3233 11.4716 26.2625 11.456ZM25.0752 11.1373C24.5773 10.988 24.0979 10.7627 23.6224 10.552C23.5629 10.5253 23.5092 10.487 23.4644 10.4394C23.4195 10.3917 23.3844 10.3356 23.3611 10.2743C23.3377 10.2129 23.3265 10.1475 23.3282 10.0818C23.3299 10.0161 23.3444 9.95138 23.3708 9.89132C23.3973 9.83126 23.4352 9.77704 23.4824 9.73178C23.5296 9.68651 23.5851 9.65107 23.6459 9.62749C23.7067 9.6039 23.7714 9.59264 23.8365 9.59433C23.9016 9.59601 23.9657 9.61061 24.0252 9.63731C24.4637 9.83598 24.9061 10.0507 25.3631 10.1987C25.4241 10.2177 25.4808 10.2488 25.53 10.29C25.5792 10.3312 25.6198 10.3818 25.6496 10.4389C25.7098 10.5542 25.7222 10.6888 25.684 10.8133C25.6458 10.9378 25.5602 11.0419 25.446 11.1026C25.3319 11.1634 25.1985 11.1759 25.0752 11.1373ZM23.6224 10.552C23.1364 10.3373 22.6451 10.1253 22.1776 9.87199C22.1195 9.84048 22.0681 9.7977 22.0263 9.74614C21.9846 9.69457 21.9534 9.63522 21.9343 9.57146C21.9153 9.50769 21.909 9.44077 21.9156 9.37452C21.9222 9.30826 21.9416 9.24399 21.9729 9.18533C22.0041 9.12667 22.0464 9.07479 22.0975 9.03266C22.1486 8.99053 22.2074 8.95895 22.2705 8.93976C22.3337 8.92057 22.4 8.91413 22.4656 8.9208C22.5312 8.92747 22.5949 8.94713 22.653 8.97864C23.0981 9.22264 23.5643 9.42798 24.0265 9.63731C24.1405 9.69532 24.228 9.79541 24.2708 9.91679C24.3136 10.0382 24.3084 10.1715 24.2565 10.2892C24.2045 10.4069 24.1096 10.4998 23.9915 10.5487C23.8735 10.5977 23.7413 10.5988 23.6224 10.552ZM22.1776 9.87199C21.9174 9.73066 21.6625 9.57732 21.4221 9.40532C21.3128 9.32788 21.2385 9.20977 21.2155 9.07699C21.1924 8.94422 21.2226 8.80764 21.2993 8.69731C21.376 8.58698 21.493 8.51195 21.6245 8.48869C21.756 8.46544 21.8913 8.49587 22.0006 8.57331L22.0019 8.57465C22.2112 8.72234 22.4291 8.85724 22.6543 8.97864C22.7717 9.0423 22.8592 9.15041 22.8976 9.27918C22.9359 9.40796 22.9221 9.54685 22.859 9.66531C22.796 9.78377 22.6889 9.87212 22.5614 9.91087C22.4338 9.94963 22.2962 9.93565 22.1789 9.87199H22.1776ZM21.4221 9.40532C21.1275 9.19116 20.8433 8.9629 20.5703 8.72132C20.5183 8.67833 20.4753 8.62529 20.4439 8.56531C20.4125 8.50534 20.3933 8.43965 20.3874 8.37208C20.3815 8.3045 20.389 8.23642 20.4095 8.17182C20.4301 8.10722 20.4632 8.04741 20.5069 7.9959C20.5506 7.94438 20.6041 7.90219 20.6642 7.87183C20.7243 7.84147 20.7897 7.82354 20.8568 7.81908C20.9238 7.81461 20.9911 7.82371 21.0546 7.84585C21.1181 7.86799 21.1766 7.90271 21.2267 7.94798C21.4776 8.16532 21.7325 8.38132 22.0019 8.57465C22.1112 8.65245 22.1854 8.77089 22.2082 8.90392C22.231 9.03694 22.2005 9.17365 22.1234 9.28398C22.0463 9.39431 21.929 9.46923 21.7973 9.49223C21.6655 9.51524 21.5301 9.48444 21.4208 9.40664L21.4221 9.40532ZM20.5703 8.72132C20.2295 8.42665 19.9073 8.10798 19.6141 7.76398C19.5673 7.71367 19.5311 7.6543 19.5077 7.58948C19.4843 7.52466 19.4741 7.45572 19.4778 7.38683C19.4816 7.31793 19.499 7.25051 19.5293 7.18862C19.5595 7.12674 19.6018 7.07168 19.6537 7.02678C19.7056 6.98188 19.766 6.94807 19.8312 6.92737C19.8964 6.90668 19.9651 6.89952 20.0331 6.90636C20.1011 6.9132 20.167 6.93389 20.2269 6.96717C20.2868 7.00045 20.3393 7.04562 20.3814 7.09998C20.6389 7.40531 20.9242 7.68665 21.2267 7.94798C21.3249 8.03683 21.3847 8.16097 21.3934 8.29381C21.4021 8.42665 21.3589 8.55763 21.2731 8.65872C21.1873 8.75981 21.0657 8.82296 20.9343 8.83466C20.803 8.84636 20.6723 8.80568 20.5703 8.72132ZM19.6141 7.76398C19.3416 7.44501 19.0914 7.10731 18.8653 6.75332C18.8294 6.69685 18.8048 6.63379 18.7931 6.56775C18.7813 6.50171 18.7825 6.43399 18.7967 6.36843C18.8109 6.30288 18.8377 6.24077 18.8756 6.18567C18.9136 6.13058 18.9619 6.08357 19.0178 6.04733C19.0737 6.01108 19.1362 5.98631 19.2016 5.97443C19.267 5.96256 19.3341 5.96379 19.3991 5.97809C19.464 5.99239 19.5255 6.01947 19.5801 6.05777C19.6346 6.09606 19.6812 6.14485 19.7171 6.20132C19.9165 6.51599 20.1397 6.81465 20.3814 7.09998C20.4616 7.20354 20.4992 7.33435 20.4863 7.46515C20.4734 7.59596 20.411 7.7167 20.3121 7.80225C20.2133 7.8878 20.0855 7.93155 19.9555 7.92442C19.8255 7.9173 19.7032 7.85983 19.6141 7.76398ZM18.8653 6.75332C18.6474 6.41199 18.4638 6.04665 18.3238 5.66665C18.2761 5.54218 18.2794 5.40369 18.3329 5.28166C18.3864 5.15964 18.4858 5.06407 18.6091 5.01598C18.7323 4.96788 18.8695 4.97122 18.9904 5.02523C19.1112 5.07924 19.2059 5.17951 19.2535 5.30398C19.379 5.61731 19.5362 5.91732 19.7158 6.20132C19.7831 6.3151 19.804 6.45087 19.7741 6.57992C19.7441 6.70897 19.6656 6.82119 19.5551 6.89287C19.4447 6.96455 19.311 6.99006 19.1822 6.96402C19.0535 6.93797 18.9398 6.86243 18.8653 6.75332ZM18.3238 5.66665C18.193 5.30665 18.0979 4.93598 18.0425 4.55732C18.0236 4.42754 18.0565 4.29548 18.134 4.19021C18.2115 4.08494 18.3273 4.01507 18.4559 3.99598C18.5844 3.97688 18.7152 4.01014 18.8195 4.0884C18.9237 4.16667 18.9929 4.28354 19.0119 4.41332C19.0554 4.71998 19.1386 5.01865 19.2535 5.30398C19.279 5.36589 19.2919 5.43232 19.2915 5.49933C19.2911 5.56635 19.2775 5.63262 19.2514 5.69424C19.2252 5.75586 19.1872 5.81157 19.1394 5.85812C19.0917 5.90467 19.0352 5.94111 18.9733 5.9653C18.9113 5.98948 18.8453 6.00092 18.7789 5.99895C18.7126 5.99697 18.6473 5.98161 18.5869 5.95378C18.5265 5.92596 18.4722 5.88623 18.4273 5.83692C18.3823 5.78761 18.3476 5.72971 18.3251 5.66665H18.3238ZM18.0425 4.55732C17.9896 4.18398 17.9685 3.80399 17.9791 3.42666C17.9798 3.299 18.0307 3.17685 18.1206 3.08708C18.2105 2.99731 18.332 2.94728 18.4585 2.94798C18.5849 2.94869 18.7059 3.00008 18.7948 3.09085C18.8838 3.18161 18.9333 3.30433 18.9326 3.43199C18.9382 3.76048 18.9647 4.08825 19.0119 4.41332C19.0212 4.47758 19.018 4.54308 19.0023 4.60606C18.9866 4.66905 18.9587 4.7283 18.9203 4.78042C18.8819 4.83255 18.8338 4.87653 18.7785 4.90986C18.7233 4.94318 18.6621 4.9652 18.5985 4.97466C18.5348 4.98411 18.47 4.98081 18.4076 4.96495C18.3452 4.9491 18.2865 4.921 18.2349 4.88225C18.1832 4.8435 18.1397 4.79485 18.1067 4.7391C18.0736 4.68335 18.0518 4.62158 18.0425 4.55732ZM18.9709 2.82398C18.9128 3.01065 18.93 3.23733 18.9326 3.43199C18.9319 3.55965 18.881 3.68178 18.7911 3.77155C18.7466 3.816 18.6938 3.85116 18.6359 3.87503C18.5779 3.89889 18.5158 3.911 18.4532 3.91065C18.3906 3.9103 18.3287 3.8975 18.271 3.87299C18.2132 3.84848 18.1609 3.81273 18.1169 3.76779C18.0728 3.72284 18.038 3.66958 18.0144 3.61105C17.9907 3.55252 17.9787 3.48987 17.9791 3.42666C17.987 3.11999 18.0002 2.78666 18.1243 2.50133C18.1707 2.3937 18.2564 2.30819 18.3635 2.26252C18.4706 2.21684 18.5909 2.21449 18.6997 2.25595C18.8085 2.2974 18.8973 2.3795 18.9478 2.48523C18.9983 2.59097 19.0066 2.71225 18.9709 2.82398ZM19.2509 2.29865C19.1479 2.46265 19.029 2.63731 18.9709 2.82398C18.9532 2.88419 18.9233 2.94006 18.8832 2.9881C18.8431 3.03615 18.7936 3.07533 18.7378 3.10322C18.6821 3.1311 18.6212 3.1471 18.5591 3.15019C18.4969 3.15328 18.4348 3.1434 18.3766 3.12118C18.3183 3.09896 18.2653 3.06486 18.2207 3.02102C18.1761 2.97719 18.141 2.92456 18.1174 2.8664C18.0939 2.80824 18.0825 2.7458 18.0839 2.68299C18.0853 2.62018 18.0995 2.55835 18.1257 2.50133C18.2395 2.26138 18.3748 2.03243 18.5298 1.81733C18.593 1.72079 18.6916 1.65355 18.804 1.63042C18.9163 1.60729 19.0331 1.63015 19.1287 1.69398C19.2244 1.7578 19.291 1.85737 19.3139 1.97077C19.3368 2.08417 19.3141 2.20211 19.2509 2.29865ZM19.6418 1.77464C19.4873 1.92664 19.3658 2.11732 19.2509 2.29865C19.1878 2.39519 19.0894 2.46249 18.9772 2.48574C18.9217 2.49726 18.8644 2.49761 18.8087 2.48678C18.753 2.47596 18.7 2.45417 18.6526 2.42265C18.6053 2.39114 18.5646 2.35052 18.5328 2.30311C18.501 2.2557 18.4787 2.20241 18.4673 2.14633C18.4559 2.09024 18.4555 2.03245 18.4663 1.97622C18.477 1.92 18.4986 1.86513 18.5298 1.81733C18.6833 1.57567 18.8651 1.35494 19.0713 1.15731C19.1534 1.08725 19.259 1.05176 19.3663 1.05817C19.4736 1.06458 19.5744 1.11241 19.6477 1.19176C19.721 1.2711 19.7613 1.37587 19.7602 1.48438C19.7591 1.59289 19.7167 1.69682 19.6418 1.77464ZM19.9641 1.52798C19.8452 1.59465 19.7396 1.67998 19.6418 1.77464C19.6026 1.81686 19.5552 1.85051 19.5025 1.87346C19.4498 1.89641 19.3931 1.90819 19.3357 1.90807C19.2783 1.90795 19.2216 1.89593 19.1691 1.87277C19.1165 1.8496 19.0692 1.81577 19.0301 1.77338C18.9911 1.731 18.961 1.68096 18.9419 1.62637C18.9228 1.57178 18.9149 1.51381 18.9189 1.45604C18.9229 1.39827 18.9386 1.34196 18.965 1.29057C18.9915 1.23919 19.0281 1.19382 19.0726 1.15731C19.225 1.01874 19.3941 0.90004 19.5758 0.803981C19.6709 0.751998 19.7825 0.740298 19.8862 0.771429C19.9898 0.80256 20.077 0.873968 20.1285 0.969976C20.18 1.06598 20.1916 1.17873 20.1608 1.28337C20.1299 1.38802 20.0592 1.476 19.9641 1.52798ZM20.3365 1.36131C20.2071 1.40398 20.0816 1.45998 19.9641 1.52798C19.869 1.57996 19.7573 1.59168 19.6537 1.56055C19.55 1.52942 19.4629 1.45799 19.4114 1.36198C19.3599 1.26598 19.3483 1.15325 19.3791 1.04861C19.4099 0.943964 19.4807 0.855963 19.5758 0.803981C19.7436 0.716485 19.9191 0.645057 20.1001 0.590643C20.1502 0.574884 20.2029 0.569256 20.2552 0.574061C20.3075 0.578867 20.3583 0.594019 20.4048 0.618658C20.4513 0.643296 20.4925 0.676936 20.5261 0.717657C20.5597 0.758377 20.585 0.80538 20.6006 0.855983C20.6163 0.906585 20.6219 0.959797 20.6171 1.01258C20.6123 1.06536 20.5973 1.11668 20.5729 1.1636C20.5485 1.21052 20.5152 1.25213 20.4748 1.28606C20.4345 1.31998 20.3866 1.34555 20.3365 1.36131ZM21.0021 1.25066C20.7816 1.27332 20.5491 1.29198 20.3365 1.36131C20.2384 1.38542 20.1348 1.37118 20.0467 1.32144C19.9585 1.27169 19.8922 1.19014 19.8611 1.09312C19.8301 0.996107 19.8365 0.890796 19.8791 0.798345C19.9217 0.705895 19.9973 0.633134 20.0909 0.594651L20.1001 0.591985C20.3695 0.519863 20.645 0.473003 20.9229 0.451991C20.9748 0.446738 21.0273 0.451851 21.0773 0.467067C21.1273 0.482282 21.1738 0.507288 21.2142 0.540655C21.2546 0.574022 21.2881 0.615106 21.3128 0.661545C21.3375 0.707984 21.3529 0.758884 21.3581 0.811325C21.3633 0.863767 21.3582 0.916729 21.3431 0.967189C21.328 1.01765 21.3033 1.06462 21.2702 1.10541C21.2372 1.14621 21.1965 1.18002 21.1505 1.20494C21.1045 1.22986 21.0541 1.2454 21.0021 1.25066ZM22.0613 1.20398C21.7087 1.20265 21.3548 1.21466 21.0021 1.25066C20.8972 1.26127 20.7925 1.22936 20.7108 1.16197C20.6292 1.09458 20.5775 0.997232 20.567 0.891322C20.5565 0.785412 20.5881 0.679625 20.6548 0.597234C20.7216 0.514843 20.818 0.4626 20.9229 0.451991C21.3029 0.413744 21.6847 0.396383 22.0666 0.399989C22.1722 0.400696 22.2732 0.443728 22.3474 0.519618C22.4216 0.595508 22.4629 0.698035 22.4622 0.804652C22.4615 0.911269 22.4188 1.01323 22.3437 1.08812C22.2685 1.16301 22.1669 1.20469 22.0613 1.20398ZM23.1271 1.34664C22.7798 1.25464 22.4206 1.20665 22.0613 1.20398C22.0071 1.20675 21.9529 1.19831 21.902 1.17918C21.8511 1.16006 21.8047 1.13064 21.7654 1.09274C21.7262 1.05484 21.695 1.00925 21.6739 0.958766C21.6527 0.908284 21.642 0.853974 21.6424 0.799159C21.6427 0.744344 21.6541 0.690173 21.676 0.639979C21.6978 0.589785 21.7296 0.544621 21.7693 0.507248C21.809 0.469876 21.8558 0.441099 21.907 0.422653C21.9581 0.404208 22.0124 0.396494 22.0666 0.399989C22.4892 0.402656 22.9119 0.453311 23.3213 0.550644C23.4262 0.575398 23.5171 0.641214 23.5739 0.733607C23.6307 0.826 23.6489 0.93741 23.6244 1.04332C23.5999 1.14923 23.5347 1.24096 23.4432 1.29835C23.3516 1.35573 23.2413 1.37406 23.1364 1.34931L23.1271 1.34664ZM24.1863 1.69599C23.8403 1.55732 23.4864 1.44264 23.1271 1.34664C23.0226 1.32048 22.9326 1.25345 22.877 1.1603C22.8214 1.06716 22.8047 0.955537 22.8306 0.849981C22.8566 0.744425 22.923 0.653594 23.0152 0.597458C23.1075 0.541322 23.2181 0.524476 23.3226 0.550644C23.7188 0.643978 24.1111 0.766645 24.4914 0.918646C24.5935 0.959666 24.6753 1.03996 24.7188 1.14185C24.7622 1.24375 24.7638 1.3589 24.7232 1.46198C24.6826 1.56506 24.603 1.64763 24.5021 1.69151C24.4012 1.7354 24.2884 1.73701 24.1863 1.69599ZM25.1267 2.17599C24.8282 1.98799 24.5139 1.82666 24.1863 1.69599C24.0842 1.65497 24.0011 1.57468 23.9577 1.47278C23.9142 1.37089 23.9126 1.25574 23.9532 1.15265C23.9939 1.04957 24.0734 0.967005 24.1743 0.923121C24.2752 0.879238 24.3893 0.877625 24.4914 0.918646C24.864 1.06762 25.2236 1.24781 25.5665 1.45732C25.6135 1.48612 25.6544 1.52398 25.6869 1.56875C25.7194 1.61352 25.7428 1.66433 25.7559 1.71825C25.769 1.77217 25.7714 1.82816 25.763 1.88302C25.7546 1.93788 25.7356 1.99054 25.7071 2.03799C25.6786 2.08544 25.6411 2.12676 25.5967 2.15957C25.5524 2.19239 25.5021 2.21607 25.4487 2.22925C25.3952 2.24244 25.3398 2.24487 25.2854 2.23641C25.2311 2.22796 25.1789 2.20878 25.1319 2.17998L25.1267 2.17599ZM26.0089 2.82131C25.7291 2.58698 25.4344 2.37141 25.1267 2.17599C25.0366 2.1151 24.9735 2.02133 24.9505 1.91441C24.9276 1.8075 24.9466 1.69576 25.0035 1.60269C25.0605 1.50962 25.151 1.44246 25.2559 1.41535C25.3609 1.38824 25.4722 1.40329 25.5665 1.45732C25.9086 1.66745 26.2364 1.90041 26.5477 2.15465C26.6325 2.22731 26.6858 2.33055 26.6963 2.44233C26.7068 2.55411 26.6737 2.6656 26.6039 2.75306C26.5342 2.84051 26.4334 2.89701 26.3229 2.91051C26.2125 2.92401 26.1013 2.89344 26.0129 2.82532L26.0089 2.82131ZM26.8277 3.58932C26.5698 3.31749 26.2964 3.06105 26.0089 2.82131C25.9213 2.74918 25.8657 2.64488 25.8543 2.53136C25.843 2.41784 25.8767 2.30439 25.9481 2.21599C26.0196 2.12758 26.1229 2.07144 26.2354 2.05994C26.3478 2.04844 26.4602 2.08251 26.5477 2.15465C26.8649 2.41316 27.1657 2.69149 27.4484 2.98798C27.4876 3.02913 27.5184 3.07767 27.539 3.13082C27.5597 3.18398 27.5697 3.24072 27.5686 3.2978C27.5675 3.35487 27.5553 3.41118 27.5326 3.46349C27.51 3.51579 27.4773 3.56307 27.4366 3.60265C27.3958 3.64222 27.3477 3.6733 27.2951 3.69412C27.2424 3.71493 27.1862 3.72506 27.1297 3.72394C27.0731 3.72283 27.0174 3.7105 26.9656 3.68763C26.9138 3.66476 26.8669 3.63047 26.8277 3.58932ZM27.463 4.38532C27.2781 4.09999 27.0615 3.83599 26.8277 3.58932C26.7545 3.50521 26.7149 3.39579 26.7196 3.28388C26.7243 3.17197 26.7716 3.06621 26.8516 2.98865C26.9317 2.9111 27.0383 2.86774 27.1492 2.86762C27.2602 2.8675 27.3682 2.91061 27.4484 2.98798C27.7194 3.26836 27.9662 3.57022 28.1894 3.89065C28.2244 3.9387 28.2495 3.9934 28.2631 4.05148C28.2766 4.10956 28.2784 4.16982 28.2684 4.22862C28.2583 4.28742 28.2365 4.34356 28.2044 4.39366C28.1723 4.44376 28.1305 4.48678 28.0815 4.52015C28.0325 4.55352 27.9773 4.57654 27.9193 4.58784C27.8613 4.59913 27.8015 4.59846 27.7438 4.58586C27.686 4.57327 27.6313 4.54902 27.5831 4.51455C27.5348 4.48009 27.494 4.43613 27.463 4.38532ZM27.8486 5.01998C27.7337 4.79998 27.5977 4.59332 27.463 4.38532C27.4036 4.28806 27.3838 4.1714 27.4077 4.05974C27.4316 3.94808 27.4973 3.85008 27.5911 3.7862C27.6849 3.72232 27.7995 3.69752 27.911 3.71699C28.0225 3.73645 28.1223 3.79868 28.1894 3.89065C28.3465 4.11865 28.5037 4.35066 28.6344 4.59599C28.6905 4.70102 28.7029 4.82421 28.669 4.93848C28.635 5.05275 28.5575 5.14875 28.4535 5.20533C28.3495 5.26191 28.2274 5.27444 28.1143 5.24018C28.0011 5.20592 27.906 5.12768 27.8499 5.02265L27.8486 5.01998ZM28.0639 5.59866C28.0071 5.40266 27.945 5.20132 27.8486 5.01998C27.7929 4.91478 27.7809 4.79156 27.8152 4.67741C27.8495 4.56327 27.9273 4.46755 28.0315 4.41132C28.1357 4.3551 28.2578 4.34296 28.3709 4.37759C28.4839 4.41222 28.5787 4.49079 28.6344 4.59599C28.7539 4.831 28.852 5.07643 28.9276 5.32931C28.9452 5.38657 28.9513 5.44675 28.9458 5.50641C28.9403 5.56608 28.9232 5.62408 28.8955 5.67707C28.8677 5.73006 28.83 5.777 28.7843 5.81525C28.7386 5.8535 28.6859 5.8823 28.6291 5.89999C28.5724 5.91767 28.5128 5.92391 28.4537 5.91834C28.3946 5.91277 28.3372 5.89548 28.2847 5.8675C28.2322 5.83952 28.1857 5.80138 28.1478 5.75525C28.1099 5.70912 28.0814 5.65591 28.0639 5.59866ZM28.188 6.35865C28.1775 6.10131 28.1352 5.84533 28.0639 5.59866C28.0287 5.48302 28.0404 5.358 28.0965 5.2511C28.1526 5.14421 28.2485 5.06419 28.363 5.02865C28.4776 4.99311 28.6014 5.00497 28.7073 5.06161C28.8132 5.11825 28.8924 5.21502 28.9276 5.33065C29.0289 5.64905 29.0888 5.97936 29.1059 6.31332C29.1105 6.43517 29.0674 6.55393 28.9859 6.64393C28.9044 6.73392 28.791 6.78791 28.6704 6.79422C28.5498 6.80052 28.4316 6.75863 28.3413 6.67762C28.251 6.59661 28.196 6.48298 28.188 6.36131V6.35865ZM28.9025 7.52798C28.8861 7.58983 28.8572 7.6476 28.8177 7.6977C28.7781 7.74779 28.7288 7.78916 28.6728 7.81918C28.6168 7.8492 28.5552 7.86725 28.492 7.87222C28.4287 7.87719 28.3651 7.86896 28.3052 7.84805C28.2452 7.82714 28.1902 7.79398 28.1434 7.75066C28.0967 7.70734 28.0593 7.65478 28.0336 7.59624C28.0079 7.5377 27.9943 7.47445 27.9939 7.41041C27.9934 7.34636 28.006 7.2829 28.0309 7.22398C28.1368 6.94759 28.1905 6.65366 28.1894 6.35733C28.1907 6.23902 28.2368 6.1257 28.3182 6.04055C28.3995 5.9554 28.51 5.90484 28.6271 5.89922C28.7442 5.8936 28.8589 5.93335 28.9479 6.01032C29.0369 6.08729 29.0934 6.19568 29.1059 6.31332C29.1271 6.72665 29.0359 7.14131 28.9025 7.52798ZM28.9025 7.52798C28.7625 7.94131 28.5644 8.33598 28.2937 8.67731C28.2166 8.77403 28.1047 8.83589 27.9824 8.84927C27.8602 8.86265 27.7377 8.82644 27.6419 8.74864C27.5461 8.67085 27.4849 8.55783 27.4716 8.43443C27.4584 8.31103 27.4942 8.18736 27.5713 8.09064C27.7732 7.83092 27.9287 7.53765 28.0309 7.22398C28.0767 7.11534 28.1617 7.02829 28.2686 6.98039C28.3755 6.93249 28.4965 6.92731 28.607 6.96587C28.7176 7.00443 28.8096 7.08388 28.8644 7.1882C28.9193 7.29251 28.9329 7.41393 28.9025 7.52798ZM28.2937 8.67731C28.056 8.97731 27.7905 9.25466 27.4986 9.50399C27.4518 9.54374 27.3977 9.57378 27.3394 9.59241C27.281 9.61104 27.2196 9.61788 27.1587 9.61255C27.0977 9.60723 27.0384 9.58985 26.9841 9.56139C26.9298 9.53292 26.8816 9.49394 26.8422 9.44666C26.8029 9.39939 26.7731 9.34474 26.7547 9.28585C26.7362 9.22697 26.7294 9.16497 26.7347 9.10344C26.74 9.04191 26.7572 8.98202 26.7854 8.92721C26.8136 8.8724 26.8522 8.82373 26.899 8.78398C27.1448 8.57497 27.3704 8.34281 27.5726 8.09064C27.6497 7.9941 27.7615 7.93243 27.8836 7.91917C28.0058 7.90592 28.1281 7.94219 28.2237 8.01998C28.3193 8.09778 28.3804 8.21074 28.3935 8.33401C28.4067 8.45728 28.3707 8.58077 28.2937 8.67731ZM27.4986 9.50399C27.2081 9.74933 26.8977 9.97332 26.5741 10.176C26.5224 10.2084 26.4648 10.2302 26.4047 10.2401C26.3446 10.25 26.2831 10.2479 26.2238 10.2338C26.1645 10.2198 26.1086 10.1941 26.0591 10.1582C26.0097 10.1223 25.9677 10.0769 25.9356 10.0246C25.9035 9.97238 25.8819 9.91425 25.8721 9.85356C25.8623 9.79288 25.8644 9.73085 25.8783 9.67099C25.8922 9.61112 25.9177 9.55461 25.9532 9.50468C25.9888 9.45476 26.0337 9.41238 26.0855 9.37999C26.3702 9.20087 26.6421 9.0017 26.899 8.78398C26.9936 8.70371 27.1159 8.66465 27.239 8.6754C27.3621 8.68615 27.4759 8.74584 27.5554 8.84131C27.6349 8.93679 27.6736 9.06026 27.663 9.18454C27.6523 9.30881 27.5932 9.42372 27.4986 9.50399ZM26.5741 10.176C26.067 10.4933 25.5361 10.7733 25.0091 11.056C24.9006 11.1096 24.7758 11.1184 24.6609 11.0807C24.5461 11.043 24.4503 10.9616 24.3939 10.8538C24.3374 10.7461 24.3247 10.6204 24.3584 10.5033C24.3922 10.3862 24.4697 10.287 24.5746 10.2266H24.5759C25.0844 9.95598 25.5982 9.68799 26.0855 9.37999C26.19 9.31457 26.3161 9.29375 26.4358 9.32213C26.5556 9.35051 26.6593 9.42576 26.7241 9.53132C26.7889 9.63687 26.8095 9.7641 26.7813 9.88499C26.7532 10.0059 26.6787 10.1106 26.5741 10.176ZM25.0091 11.056C24.2418 11.4653 23.4586 11.8453 22.6675 12.2066C22.6116 12.232 22.5513 12.2461 22.49 12.2479C22.4287 12.2498 22.3676 12.2394 22.3103 12.2174C22.2529 12.1954 22.2005 12.1623 22.1558 12.1198C22.1112 12.0774 22.0753 12.0264 22.0501 11.97C22.025 11.9135 22.0111 11.8526 22.0092 11.7907C22.0074 11.7288 22.0177 11.6672 22.0395 11.6093C22.0612 11.5514 22.0941 11.4984 22.1361 11.4534C22.1782 11.4083 22.2286 11.372 22.2845 11.3466C23.0594 10.9968 23.8236 10.6233 24.5759 10.2266C24.6836 10.1786 24.8053 10.1735 24.9165 10.2125C25.0277 10.2515 25.1201 10.3316 25.1751 10.4367C25.23 10.5417 25.2435 10.664 25.2127 10.7787C25.1819 10.8934 25.1091 10.992 25.0091 11.0547V11.056ZM22.6675 12.2066C22.0442 12.4907 21.4195 12.7747 20.7869 13.0387C20.6722 13.0864 20.5434 13.0862 20.4288 13.038C20.3143 12.9899 20.2233 12.8978 20.176 12.782C20.1288 12.6662 20.129 12.5361 20.1767 12.4205C20.2243 12.3048 20.3156 12.213 20.4303 12.1653C21.055 11.9066 21.6704 11.6266 22.2845 11.3466C22.3975 11.2954 22.526 11.2915 22.6418 11.3359C22.7576 11.3803 22.8512 11.4693 22.902 11.5833C22.9528 11.6974 22.9566 11.8271 22.9126 11.944C22.8687 12.0609 22.7805 12.1554 22.6675 12.2066ZM20.7869 13.0387C20.2348 13.2693 19.6722 13.4773 19.1096 13.68C18.9925 13.7203 18.8643 13.7124 18.7529 13.6582C18.6414 13.604 18.5555 13.5077 18.5137 13.3901C18.472 13.2725 18.4777 13.1431 18.5296 13.0297C18.5815 12.9163 18.6755 12.828 18.7913 12.784H18.7939C19.3449 12.5917 19.891 12.3854 20.4316 12.1653C20.4884 12.1417 20.5493 12.1296 20.6107 12.1297C20.6721 12.1298 20.733 12.1421 20.7897 12.1659C20.9042 12.2141 20.9951 12.3062 21.0424 12.422C21.0897 12.5378 21.0895 12.6678 21.0418 12.7835C20.9941 12.8991 20.9016 12.9909 20.7869 13.0387ZM19.1096 13.68C18.4048 13.9352 17.6887 14.1573 16.9635 14.3453C16.8435 14.3709 16.7183 14.3487 16.6141 14.2833C16.51 14.2179 16.4349 14.1144 16.4045 13.9945C16.3742 13.8745 16.3909 13.7473 16.4513 13.6395C16.5116 13.5317 16.6109 13.4516 16.7284 13.416C17.4258 13.2363 18.115 13.0254 18.7939 12.784C18.91 12.7483 19.0351 12.7592 19.1434 12.8143C19.2517 12.8694 19.3348 12.9645 19.3754 13.0799C19.4161 13.1952 19.4111 13.3219 19.3616 13.4337C19.3121 13.5455 19.2218 13.6337 19.1096 13.68ZM16.9635 14.3453C16.3586 14.5013 15.7498 14.648 15.1343 14.7546C15.0129 14.7698 14.8903 14.7372 14.7921 14.6635C14.694 14.5899 14.6277 14.4808 14.6071 14.3591C14.5865 14.2373 14.6132 14.1122 14.6817 14.0098C14.7501 13.9074 14.855 13.8356 14.9745 13.8093C15.5641 13.7018 16.1492 13.5705 16.7284 13.416C16.8484 13.3904 16.9735 13.4126 17.0777 13.478C17.1819 13.5434 17.257 13.6469 17.2873 13.7669C17.3177 13.8868 17.3009 14.014 17.2406 14.1218C17.1802 14.2296 17.0809 14.3097 16.9635 14.3453ZM15.1343 14.7546C14.7328 14.8226 14.3313 14.888 13.9272 14.9306C13.8025 14.9443 13.6775 14.9073 13.5798 14.8279C13.4821 14.7485 13.4197 14.6332 13.4062 14.5073C13.3927 14.3814 13.4293 14.2553 13.5079 14.1566C13.5866 14.058 13.7008 13.9949 13.8255 13.9813C14.2111 13.9386 14.5928 13.8746 14.9745 13.8093C15.0371 13.7958 15.1018 13.7952 15.1647 13.8076C15.2275 13.8199 15.2873 13.845 15.3403 13.8812C15.3934 13.9174 15.4386 13.9641 15.4734 14.0184C15.5081 14.0727 15.5316 14.1336 15.5424 14.1973C15.5533 14.261 15.5513 14.3263 15.5365 14.3892C15.5218 14.4521 15.4946 14.5114 15.4566 14.5635C15.4186 14.6155 15.3706 14.6593 15.3155 14.6921C15.2603 14.725 15.1978 14.7462 15.1343 14.7546ZM13.9272 14.9306C13.531 14.9733 13.1321 15 12.7333 15.024C12.6713 15.0276 12.6092 15.0188 12.5505 14.9982C12.4919 14.9775 12.4379 14.9454 12.3915 14.9037C12.3451 14.862 12.3074 14.8114 12.2804 14.755C12.2533 14.6985 12.2376 14.6372 12.2341 14.5747C12.2305 14.5121 12.2392 14.4494 12.2596 14.3902C12.2801 14.331 12.3119 14.2764 12.3532 14.2296C12.3945 14.1828 12.4446 14.1447 12.5005 14.1174C12.5564 14.0901 12.6171 14.0742 12.6791 14.0706C13.0621 14.048 13.4451 14.0226 13.8255 13.9813C13.9502 13.9677 14.0751 14.0047 14.1728 14.0841C14.2706 14.1634 14.333 14.2788 14.3465 14.4046C14.36 14.5305 14.3234 14.6567 14.2448 14.7553C14.1661 14.854 14.0519 14.917 13.9272 14.9306ZM12.7333 15.024C12.0901 15.0613 11.4443 15.068 10.7998 15.0706C10.7377 15.0709 10.6762 15.0588 10.6187 15.0351C10.5612 15.0113 10.509 14.9764 10.4649 14.9323C10.4208 14.8881 10.3858 14.8357 10.3618 14.7778C10.3377 14.72 10.3253 14.658 10.325 14.5953C10.3247 14.5326 10.3367 14.4705 10.3602 14.4125C10.3838 14.3545 10.4184 14.3017 10.4621 14.2572C10.5058 14.2127 10.5578 14.1773 10.615 14.1531C10.6723 14.1289 10.7337 14.1163 10.7958 14.116C11.4239 14.1178 12.0519 14.1026 12.6791 14.0706C12.8044 14.0634 12.9273 14.1067 13.0209 14.1909C13.1146 14.2752 13.1712 14.3936 13.1784 14.52C13.1855 14.6464 13.1427 14.7705 13.0592 14.865C12.9758 14.9596 12.8585 15.0167 12.7333 15.024ZM10.7998 15.0706C10.1421 15.0733 9.48307 15.068 8.82668 15.024C8.70659 15.0112 8.596 14.9522 8.51797 14.8591C8.43994 14.7661 8.40048 14.6462 8.4078 14.5246C8.41512 14.4029 8.46865 14.2887 8.55727 14.2059C8.64588 14.1231 8.76273 14.078 8.88347 14.08C9.52005 14.1146 10.1579 14.1187 10.7958 14.116C10.9212 14.1155 11.0417 14.1652 11.1307 14.2544C11.2198 14.3435 11.2701 14.4647 11.2706 14.5913C11.2711 14.7179 11.2218 14.8395 11.1335 14.9294C11.0452 15.0193 10.9252 15.0701 10.7998 15.0706ZM8.82668 15.024C8.41198 14.9973 7.99596 14.9626 7.58787 14.8866C7.4714 14.8627 7.36868 14.7941 7.30138 14.6952C7.2341 14.5963 7.2075 14.4749 7.2272 14.3566C7.24691 14.2382 7.31138 14.1323 7.407 14.061C7.50263 13.9897 7.62195 13.9588 7.73975 13.9747C8.11897 14.0297 8.50069 14.0653 8.88347 14.0813C9.00299 14.0942 9.11305 14.1529 9.19093 14.2453C9.26881 14.3378 9.30854 14.4569 9.30193 14.578C9.29532 14.6992 9.24287 14.8132 9.15541 14.8964C9.06794 14.9796 8.95216 15.0258 8.83196 15.0253L8.82668 15.024ZM7.58787 14.8866C6.7796 14.7386 5.98058 14.5146 5.1842 14.3146C5.07677 14.2797 4.98645 14.2051 4.93137 14.1056C4.87629 14.0062 4.86053 13.8894 4.88731 13.7787C4.91409 13.668 4.98141 13.5717 5.0757 13.5091C5.16998 13.4465 5.28425 13.4223 5.39551 13.4413C6.17076 13.6293 6.9513 13.8507 7.73975 13.9747C7.8599 13.9936 7.96767 14.0599 8.03938 14.159C8.11108 14.2582 8.14082 14.382 8.12208 14.5033C8.10334 14.6246 8.03765 14.7334 7.93944 14.8058C7.84124 14.8782 7.71857 14.9082 7.59843 14.8893L7.58787 14.8866ZM5.1842 14.3146C4.265 14.0853 3.32995 13.8653 2.44245 13.528C2.35085 13.4897 2.27678 13.4181 2.2349 13.3274C2.19302 13.2367 2.18635 13.1334 2.21621 13.038C2.24606 12.9425 2.31027 12.8618 2.39616 12.8119C2.48206 12.7619 2.58339 12.7462 2.68016 12.768C3.5822 13.0027 4.48952 13.2213 5.39551 13.4413C5.50425 13.4749 5.5962 13.5491 5.65257 13.6488C5.70895 13.7485 5.72551 13.8662 5.69888 13.9778C5.67226 14.0894 5.60445 14.1865 5.50929 14.2494C5.41413 14.3122 5.29879 14.3361 5.18684 14.316H5.1842V14.3146ZM2.45037 13.532C2.09114 13.404 1.73455 13.268 1.39381 13.0973C1.17458 12.988 0.940811 12.864 0.773083 12.6787C0.735367 12.6374 0.712528 12.5846 0.708252 12.5286C0.703976 12.4727 0.718498 12.4169 0.749508 12.3703C0.780514 12.3238 0.826172 12.2891 0.879101 12.272C0.932034 12.2549 0.989143 12.2563 1.04119 12.276C1.57871 12.472 2.13737 12.616 2.68678 12.7707C2.74038 12.7827 2.79093 12.8059 2.8352 12.8387C2.87946 12.8715 2.91647 12.9133 2.9439 12.9613C2.97132 13.0094 2.98855 13.0626 2.9945 13.1178C3.00045 13.1729 2.99498 13.2287 2.97844 13.2815C2.9619 13.3344 2.93466 13.3832 2.89843 13.4249C2.86221 13.4666 2.81779 13.5002 2.76801 13.5236C2.71822 13.5471 2.66418 13.5598 2.60927 13.561C2.55436 13.5622 2.49978 13.5519 2.44904 13.5306L2.45037 13.532Z" fill="#5EEAD4"/>
<path d="M7.50992 10.9573C7.25767 11.0866 7.00675 11.2186 6.75713 11.3506C6.67595 11.3931 6.58159 11.4019 6.49407 11.3752C6.40656 11.3485 6.33277 11.2885 6.28841 11.2078C6.24406 11.1271 6.23263 11.0321 6.25652 10.943C6.28042 10.8539 6.33777 10.7777 6.4164 10.7306C6.65941 10.5866 6.90506 10.4426 7.14675 10.296C7.23361 10.2475 7.33597 10.2359 7.43133 10.2637C7.52669 10.2914 7.60721 10.3563 7.6552 10.444C7.70319 10.5317 7.71472 10.635 7.68723 10.7313C7.65974 10.8276 7.59679 10.9089 7.50992 10.9573ZM7.50465 10.9586C7.45443 10.9836 7.3993 10.9969 7.34332 10.9974C7.28735 10.998 7.23195 10.9859 7.18124 10.9619C7.13053 10.938 7.08579 10.9029 7.05033 10.8592C7.01487 10.8154 6.98961 10.7642 6.97638 10.7093C6.94893 10.6448 6.93908 10.574 6.94786 10.5044C6.95664 10.4347 6.98373 10.3687 7.02632 10.3132C7.06891 10.2577 7.12544 10.2147 7.19005 10.1887C7.25465 10.1627 7.32497 10.1546 7.39371 10.1653C7.62087 10.2013 7.8084 10.392 7.76614 10.64C7.73972 10.7906 7.63408 10.8933 7.50465 10.96V10.9586ZM7.34616 10.948L6.90241 10.9613C6.84238 10.9632 6.78261 10.9524 6.72695 10.9296C6.67129 10.9068 6.62094 10.8725 6.57914 10.829C6.53733 10.7855 6.50498 10.7336 6.48414 10.6768C6.46331 10.6199 6.45446 10.5593 6.45815 10.4987C6.46184 10.4382 6.47797 10.3791 6.50556 10.3253C6.53314 10.2714 6.57157 10.2239 6.61836 10.1859C6.66514 10.1479 6.71924 10.1201 6.77725 10.1044C6.83526 10.0887 6.89588 10.0854 6.95524 10.0946L7.39371 10.1653C7.49066 10.1792 7.57885 10.2295 7.64074 10.3061C7.70262 10.3828 7.73364 10.4801 7.72764 10.5788C7.72165 10.6775 7.67908 10.7702 7.60839 10.8387C7.5377 10.9071 7.44407 10.9461 7.34616 10.948ZM6.90241 10.9613C6.52205 10.9746 6.14169 10.996 5.76265 11.016C5.6971 11.0165 5.63208 11.004 5.57131 10.9791C5.51054 10.9543 5.45523 10.9176 5.4085 10.8712C5.36178 10.8248 5.32455 10.7695 5.29898 10.7086C5.27341 10.6476 5.26 10.5822 5.25947 10.516C5.25895 10.4498 5.27134 10.3841 5.29595 10.3228C5.32055 10.2614 5.3569 10.2056 5.40289 10.1584C5.44888 10.1112 5.50363 10.0737 5.56399 10.0479C5.62436 10.0221 5.68918 10.0085 5.75473 10.008C6.15358 10.0213 6.56035 10.032 6.95524 10.0946C7.06163 10.1113 7.15806 10.1674 7.22558 10.2521C7.2931 10.3367 7.32687 10.4438 7.32026 10.5523C7.31364 10.6608 7.26712 10.7629 7.18982 10.8385C7.11253 10.9142 7.01002 10.958 6.90241 10.9613ZM5.76265 11.016C5.29513 11.0413 4.82891 11.096 4.37327 11.2066C4.30416 11.2228 4.23257 11.2251 4.16258 11.2134C4.09259 11.2017 4.02557 11.1761 3.96536 11.1382C3.90514 11.1003 3.8529 11.0509 3.81163 10.9926C3.77036 10.9343 3.74086 10.8684 3.72482 10.7986C3.70877 10.7289 3.70651 10.6566 3.71814 10.5859C3.72976 10.5152 3.75506 10.4476 3.79259 10.3868C3.83011 10.326 3.87912 10.2733 3.93684 10.2316C3.99455 10.19 4.05984 10.1602 4.12895 10.144C4.66237 10.0282 5.20838 9.98243 5.7534 10.008C5.87967 10.016 5.99825 10.072 6.08528 10.1647C6.17231 10.2574 6.22133 10.3799 6.2225 10.5076C6.22367 10.6353 6.17691 10.7588 6.0916 10.8531C6.00628 10.9474 5.88875 11.0056 5.76265 11.016ZM4.37327 11.2066C4.0497 11.284 3.72087 11.3706 3.41579 11.5093C3.35049 11.5391 3.28001 11.5556 3.2084 11.5578C3.13679 11.5601 3.06544 11.5481 2.99842 11.5226C2.93139 11.497 2.87001 11.4583 2.81779 11.4088C2.76556 11.3593 2.7235 11.2999 2.69402 11.234C2.66453 11.1681 2.6482 11.0969 2.64595 11.0246C2.6437 10.9523 2.65557 10.8803 2.6809 10.8126C2.70622 10.745 2.7445 10.683 2.79354 10.6303C2.84259 10.5775 2.90144 10.5351 2.96674 10.5053L2.97071 10.5026C3.34454 10.3459 3.73239 10.2258 4.12895 10.144C4.26854 10.1113 4.41529 10.1359 4.5369 10.2124C4.65851 10.2889 4.74501 10.4111 4.77741 10.552C4.80981 10.6929 4.78544 10.841 4.70965 10.9638C4.63386 11.0866 4.51286 11.1739 4.37327 11.2066ZM3.41579 11.5093C3.21241 11.6026 3.01165 11.7053 2.82279 11.8266C2.76205 11.8703 2.69315 11.9011 2.62026 11.917C2.54737 11.933 2.47202 11.9338 2.39882 11.9193C2.32562 11.9049 2.2561 11.8757 2.19448 11.8332C2.13286 11.7908 2.08044 11.7362 2.04041 11.6727C2.00037 11.6092 1.97357 11.5381 1.96163 11.4637C1.94969 11.3894 1.95285 11.3134 1.97094 11.2404C1.98903 11.1673 2.02167 11.0988 2.06686 11.0389C2.11204 10.979 2.16882 10.929 2.23376 10.892C2.46949 10.7439 2.71582 10.6137 2.97071 10.5026C3.03618 10.4731 3.10677 10.4569 3.17844 10.455C3.25011 10.453 3.32146 10.4653 3.38842 10.4912C3.52365 10.5435 3.63279 10.6478 3.69181 10.7813C3.75083 10.9148 3.75491 11.0665 3.70314 11.203C3.65138 11.3395 3.54802 11.4497 3.41579 11.5093ZM2.82279 11.8266C2.67091 11.9253 2.52959 12.04 2.40148 12.1693C2.35087 12.2247 2.28966 12.2692 2.22155 12.3C2.15344 12.3308 2.07985 12.3474 2.00522 12.3486C1.93059 12.3499 1.85647 12.336 1.78735 12.3075C1.71823 12.2791 1.65553 12.2368 1.60306 12.1832C1.5506 12.1296 1.50944 12.0658 1.48209 11.9957C1.45473 11.9255 1.44174 11.8505 1.44391 11.7752C1.44608 11.6999 1.46336 11.6258 1.4947 11.5574C1.52603 11.489 1.57077 11.4277 1.62623 11.3773C1.81133 11.1945 2.01496 11.0318 2.23376 10.892C2.35629 10.8221 2.50069 10.8024 2.6372 10.8368C2.77372 10.8713 2.89194 10.9573 2.96748 11.0772C3.04302 11.197 3.07014 11.3416 3.04321 11.4811C3.01629 11.6205 2.93739 11.7442 2.82279 11.8266ZM2.40148 12.1693C2.30243 12.2693 2.20999 12.3826 2.1466 12.5106C2.0804 12.6438 1.96452 12.7449 1.82446 12.7918C1.68439 12.8387 1.53162 12.8275 1.39975 12.7606C1.26787 12.6938 1.16769 12.5768 1.12125 12.4354C1.07482 12.294 1.08592 12.1398 1.15212 12.0066L1.15739 11.9973C1.28067 11.7672 1.43886 11.558 1.62623 11.3773C1.73174 11.2814 1.86981 11.2301 2.01175 11.2343C2.15369 11.2385 2.28858 11.2977 2.38839 11.3997C2.4882 11.5016 2.54526 11.6385 2.5477 11.7818C2.55014 11.9252 2.49777 12.0639 2.40148 12.1693ZM2.1466 12.5106C2.08453 12.636 2.04754 12.772 2.02773 12.9093C2.00478 13.0578 1.92434 13.1911 1.8041 13.2797C1.68385 13.3683 1.53365 13.4051 1.38654 13.382C1.23943 13.3588 1.10746 13.2776 1.01966 13.1562C0.931856 13.0348 0.895405 12.8832 0.918348 12.7346V12.7253C0.959801 12.4717 1.04132 12.2261 1.15739 11.9973C1.22464 11.8647 1.33999 11.7645 1.48043 11.7187C1.62086 11.673 1.77357 11.6854 1.90492 11.7533C2.03627 11.8212 2.13552 11.939 2.18085 12.0808C2.22617 12.2225 2.21385 12.378 2.1466 12.5106ZM2.02773 12.9093C1.99603 13.1066 1.98811 13.3053 1.99207 13.504C1.99181 13.58 1.97673 13.6552 1.94768 13.7253C1.91864 13.7954 1.8762 13.859 1.82279 13.9126C1.76938 13.9661 1.70605 14.0085 1.6364 14.0373C1.56676 14.0662 1.49219 14.0809 1.41692 14.0806C1.34165 14.0804 1.26716 14.0651 1.19772 14.0358C1.12828 14.0065 1.06523 13.9637 1.01219 13.9097C0.959151 13.8558 0.917153 13.7919 0.888588 13.7216C0.860023 13.6513 0.845464 13.576 0.845724 13.5C0.851798 13.2403 0.87651 12.9814 0.919678 12.7253C0.948609 12.5815 1.03168 12.4546 1.15141 12.3714C1.27114 12.2881 1.41818 12.255 1.56159 12.279C1.705 12.3031 1.83358 12.3823 1.92028 12.5001C2.00698 12.6179 2.04502 12.7651 2.02641 12.9106L2.02773 12.9093ZM0.862894 14.18C0.839121 13.9533 0.840442 13.7266 0.845724 13.5C0.84625 13.3465 0.907139 13.1995 1.015 13.0914C1.12287 12.9832 1.26886 12.9228 1.42088 12.9233C1.57289 12.9238 1.71848 12.9853 1.8256 13.0942C1.93272 13.2031 1.9926 13.3505 1.99207 13.504C1.99287 13.6823 2.00389 13.8603 2.02508 14.0373C2.03436 14.1143 2.02853 14.1925 2.0079 14.2672C1.98726 14.342 1.95226 14.4119 1.90486 14.473C1.85746 14.5341 1.79861 14.5852 1.73165 14.6233C1.6647 14.6615 1.59096 14.6859 1.51465 14.6953C1.43833 14.7047 1.36094 14.6988 1.28689 14.678C1.21284 14.6571 1.14357 14.6218 1.08305 14.5739C1.02252 14.5261 0.971918 14.4666 0.934142 14.399C0.896366 14.3314 0.872173 14.257 0.862894 14.18ZM1.10853 15.0293C1.00023 14.7573 0.891949 14.4733 0.862894 14.18C0.84433 14.0244 0.887729 13.8677 0.98358 13.7444C1.07943 13.6212 1.21987 13.5414 1.37399 13.5226C1.52811 13.5039 1.68328 13.5477 1.80538 13.6445C1.92749 13.7413 2.00652 13.8831 2.02508 14.0386C2.05017 14.2213 2.13603 14.404 2.20603 14.572C2.25854 14.7166 2.25393 14.8762 2.19312 15.0175C2.13231 15.1588 2.01998 15.2711 1.87941 15.3311C1.73884 15.3911 1.58079 15.3942 1.43802 15.3397C1.29524 15.2853 1.17868 15.1775 1.11249 15.0386L1.10853 15.0293ZM1.84152 16.4066C1.5721 15.9653 1.30003 15.512 1.10853 15.0293C1.05694 14.8841 1.06273 14.7244 1.12467 14.5834C1.18662 14.4424 1.29996 14.331 1.44119 14.2721C1.58242 14.2133 1.74068 14.2116 1.8831 14.2674C2.02552 14.3232 2.14116 14.4323 2.20603 14.572C2.38168 14.9906 2.62468 15.384 2.8624 15.7693C2.93799 15.9055 2.95867 16.0659 2.92012 16.2171C2.88158 16.3682 2.78678 16.4986 2.65546 16.581C2.52414 16.6635 2.36642 16.6916 2.21507 16.6596C2.06371 16.6277 1.93038 16.538 1.84283 16.4093L1.84152 16.4066ZM2.84523 17.976C2.49921 17.4613 2.16509 16.936 1.84152 16.4066C1.76713 16.2703 1.74747 16.1104 1.78661 15.9599C1.82575 15.8093 1.92068 15.6797 2.05179 15.5979C2.1829 15.516 2.34014 15.4882 2.49102 15.5201C2.64189 15.552 2.77485 15.6412 2.8624 15.7693C3.18069 16.2853 3.50426 16.7986 3.83575 17.3053C3.92385 17.4379 3.95617 17.6004 3.92558 17.7571C3.89499 17.9137 3.80399 18.0517 3.67264 18.1406C3.54129 18.2296 3.38034 18.2622 3.22517 18.2313C3.07 18.2004 2.93333 18.1086 2.84523 17.976ZM3.52936 18.936C3.27843 18.636 3.06448 18.3 2.84656 17.976C2.80294 17.9103 2.77256 17.8366 2.75715 17.7591C2.74174 17.6816 2.74161 17.6018 2.75676 17.5242C2.7719 17.4466 2.80202 17.3728 2.84542 17.307C2.88881 17.2412 2.94462 17.1847 3.00966 17.1406C3.0747 17.0966 3.1477 17.0659 3.22448 17.0504C3.30126 17.0348 3.38033 17.0347 3.45716 17.05C3.53399 17.0653 3.60708 17.0957 3.67226 17.1395C3.73745 17.1833 3.79346 17.2397 3.83708 17.3053C4.06028 17.6493 4.32442 18.012 4.45649 18.4053C4.4985 18.5262 4.49708 18.6582 4.4525 18.7782C4.40792 18.8982 4.32299 18.9986 4.21256 19.0618C4.10214 19.125 3.97324 19.147 3.84836 19.124C3.72348 19.101 3.61057 19.0345 3.52936 18.936ZM4.52517 19.2333C4.49611 19.276 4.45911 19.3106 4.41553 19.3373C4.06423 19.5506 3.69313 19.164 3.50427 18.904C3.46109 18.8416 3.43128 18.7708 3.41676 18.6961C3.40224 18.6214 3.40332 18.5445 3.41993 18.4703C3.43655 18.3961 3.46834 18.3262 3.51326 18.265C3.55818 18.2039 3.61525 18.153 3.6808 18.1154C3.74636 18.0778 3.81897 18.0545 3.89397 18.0469C3.96898 18.0393 4.04473 18.0476 4.11638 18.0712C4.18803 18.0949 4.254 18.1333 4.31007 18.1842C4.36613 18.2351 4.41104 18.2972 4.44195 18.3666C4.54497 18.6133 4.69818 18.984 4.52517 19.2333Z" fill="#5EEAD4"/>
<path d="M60.0522 3.99268H61.2285V5.93701H63.4199V7.00586H61.2285V10.3037C62.0771 10.694 62.9168 11.2419 63.7476 11.9473L63.146 13.0107C62.4442 12.3984 61.8014 11.9115 61.2178 11.5498C61.1533 12.4271 60.8418 13.0143 60.2832 13.3115C59.9717 13.4762 59.5456 13.5586 59.0049 13.5586C58.4176 13.5586 57.9074 13.453 57.4741 13.2417C56.8188 12.923 56.4912 12.3931 56.4912 11.6519C56.4912 11.0682 56.7401 10.6045 57.2378 10.2607C57.6925 9.94564 58.2762 9.78809 58.9888 9.78809C59.3146 9.78809 59.6691 9.82926 60.0522 9.91162V7.00586H56.5986V5.93701H60.0522V3.99268ZM60.0522 10.9536C59.6333 10.8211 59.2609 10.7549 58.9351 10.7549C58.6235 10.7549 58.3586 10.8032 58.1401 10.8999C57.7964 11.0467 57.6245 11.2866 57.6245 11.6196C57.6245 11.8918 57.7498 12.1048 58.0005 12.2588C58.244 12.4092 58.5698 12.4844 58.978 12.4844C59.6942 12.4844 60.0522 12.0815 60.0522 11.2759V10.9536ZM54.2192 13.5371C54.0939 12.3555 54.0312 11.113 54.0312 9.80957C54.0312 7.77572 54.1673 5.83675 54.4395 3.99268L55.6211 4.16455C55.3525 5.75439 55.2183 7.47314 55.2183 9.3208C55.2183 10.6779 55.2863 12.0225 55.4224 13.3545L54.2192 13.5371ZM66.4868 4.39551C66.7733 4.97917 67.0991 5.69173 67.4644 6.5332C67.8188 6.4043 68.2736 6.25033 68.8286 6.07129C69.1294 5.97461 69.3568 5.9012 69.5107 5.85107C69.2601 5.25667 68.9933 4.71777 68.7104 4.23438L69.6987 3.8584C70.0246 4.39193 70.3218 4.96842 70.5903 5.58789C71.0594 5.49121 71.4569 5.44287 71.7827 5.44287C72.4631 5.44287 73.0181 5.61475 73.4478 5.9585C73.5122 6.01221 73.5677 6.06413 73.6143 6.11426C74.0977 6.62988 74.3394 7.24219 74.3394 7.95117C74.3394 9.05046 73.915 9.83643 73.0664 10.3091C72.5651 10.592 71.7756 10.7925 70.6978 10.9106L70.2573 9.91162C71.2456 9.82926 71.9797 9.63949 72.4595 9.34229C72.8927 9.07731 73.1094 8.60286 73.1094 7.91895C73.1094 7.47493 72.993 7.1276 72.7603 6.87695C72.5239 6.61914 72.1945 6.49023 71.772 6.49023C71.5822 6.49023 71.3244 6.51888 70.9985 6.57617C71.1668 7.02018 71.3315 7.50716 71.4927 8.03711L70.4561 8.53662C70.2699 7.88493 70.0908 7.32275 69.9189 6.8501C69.2852 7.03271 68.6066 7.25651 67.8833 7.52148C68.7427 9.62695 69.4499 11.5785 70.0049 13.376L68.8931 13.7466C68.313 11.8381 67.613 9.89551 66.793 7.91895L66.5996 7.99414C65.776 8.30924 65.1924 8.53662 64.8486 8.67627L64.4512 7.60742L64.6016 7.55371C65.4287 7.24935 66.0195 7.03271 66.374 6.90381C66.0339 6.11247 65.708 5.39811 65.3965 4.76074L66.4868 4.39551ZM80.543 10.6099C79.8805 12.5578 79.1375 13.5317 78.314 13.5317C77.7267 13.5317 77.2236 13.12 76.8047 12.2964C76.4824 11.659 76.2604 10.9572 76.1387 10.1909C75.9919 9.25993 75.9185 8.06396 75.9185 6.60303C75.9185 5.96924 75.9417 5.2889 75.9883 4.56201L77.2505 4.65869C77.2039 5.38558 77.1807 6.07666 77.1807 6.73193C77.1807 9.03076 77.3955 10.6331 77.8252 11.5391C78.0007 11.9115 78.1654 12.0977 78.3193 12.0977C78.4196 12.0977 78.5449 11.9831 78.6953 11.7539C79.0033 11.2884 79.3005 10.6475 79.5869 9.83105L80.543 10.6099ZM83.9429 11.8882C83.7603 10.3771 83.5365 9.15609 83.2715 8.2251C82.9492 7.09717 82.575 6.06413 82.1489 5.12598L83.293 4.84668C83.8838 6.01758 84.3224 7.14551 84.6089 8.23047C84.8452 9.11133 85.0404 10.2321 85.1943 11.5928L83.9429 11.8882Z" fill="#5EEAD4"/>
</svg>
