<svg width="91" height="32" viewBox="0 0 91 32" fill="none" xmlns="http://www.w3.org/2000/svg">
<path d="M54.7172 15.3353C55.6943 14.7571 56.705 14.2377 57.7439 13.7798C57.7904 13.7624 57.8329 13.7358 57.8688 13.7015C57.9047 13.6672 57.9333 13.6259 57.9527 13.5803C57.9722 13.5346 57.9823 13.4855 57.9822 13.4358C57.9821 13.3862 57.972 13.337 57.9523 13.2914C57.9327 13.2458 57.904 13.2047 57.868 13.1705C57.8321 13.1363 57.7895 13.1098 57.7429 13.0925C57.6964 13.0753 57.6468 13.0677 57.5972 13.0701C57.5476 13.0726 57.4991 13.0851 57.4545 13.1069C56.389 13.5659 55.3483 14.0804 54.3217 14.6189C54.2714 14.643 54.2265 14.6771 54.1899 14.7192C54.1532 14.7612 54.1256 14.8103 54.1086 14.8635C54.0916 14.9166 54.0857 14.9726 54.0912 15.0281C54.0966 15.0836 54.1133 15.1374 54.1403 15.1862C54.1673 15.235 54.204 15.2778 54.2482 15.3119C54.2923 15.346 54.3429 15.3708 54.397 15.3846C54.451 15.3984 54.5073 15.4011 54.5624 15.3924C54.6175 15.3837 54.6701 15.3651 54.7172 15.3353ZM51.3111 17.0949C52.4645 16.5442 53.6236 15.9886 54.7214 15.333C54.8134 15.2789 54.8806 15.1911 54.9088 15.0883C54.937 14.9854 54.9239 14.8756 54.8723 14.7823C54.8208 14.6889 54.7348 14.6194 54.6328 14.5884C54.5307 14.5575 54.4206 14.5676 54.3259 14.6166C53.203 15.1872 52.0545 15.7115 50.9088 16.2334C50.7941 16.2857 50.7049 16.3813 50.6607 16.4994C50.6166 16.6174 50.6211 16.7481 50.6734 16.8628C50.7256 16.9775 50.8213 17.0667 50.9393 17.1109C51.0574 17.155 51.1881 17.1505 51.3028 17.0982L51.3111 17.0949ZM46.1565 19.0295C47.9237 18.5237 49.6475 17.8768 51.3111 17.0949C51.4253 17.0416 51.5137 16.945 51.5567 16.8265C51.5998 16.708 51.594 16.5773 51.5407 16.463C51.4873 16.3488 51.3908 16.2604 51.2723 16.2174C51.1538 16.1743 51.0231 16.1801 50.9088 16.2334C49.2797 16.9645 47.5961 17.5677 45.8734 18.0374C45.7416 18.0742 45.6297 18.1619 45.5625 18.2811C45.4953 18.4004 45.4782 18.5415 45.515 18.6733C45.5519 18.8052 45.6395 18.917 45.7588 18.9842C45.8781 19.0514 46.0191 19.0685 46.151 19.0317L46.1579 19.0296L46.1565 19.0295ZM40.4737 20.0895C42.3997 19.9318 44.3044 19.5766 46.1579 19.0296C46.2894 18.9919 46.4006 18.9034 46.467 18.7837C46.5334 18.664 46.5495 18.5229 46.5117 18.3913C46.474 18.2597 46.3856 18.1485 46.2659 18.0821C46.1461 18.0158 46.005 17.9997 45.8734 18.0374C44.0848 18.5368 42.2475 18.8637 40.394 18.9831C40.3206 18.9873 40.2487 19.006 40.1826 19.0382C40.1165 19.0704 40.0575 19.1155 40.0089 19.1707C39.9604 19.226 39.9233 19.2903 39.8998 19.36C39.8764 19.4297 39.867 19.5034 39.8723 19.5767C39.8776 19.6501 39.8974 19.7216 39.9306 19.7873C39.9638 19.8529 40.0097 19.9113 40.0657 19.959C40.1216 20.0067 40.1865 20.0428 40.2566 20.0652C40.3266 20.0876 40.4004 20.0959 40.4737 20.0895ZM35.1243 19.9007C36.8903 20.1928 38.6919 20.2309 40.4737 20.0895C40.6188 20.0768 40.7531 20.0076 40.8476 19.8968C40.9421 19.7859 40.9892 19.6424 40.9788 19.4971C40.9683 19.3518 40.9011 19.2164 40.7917 19.1203C40.6823 19.0241 40.5394 18.9748 40.394 18.9831C38.7045 19.0934 36.9985 19.0311 35.3314 18.7245C35.2543 18.711 35.1752 18.7128 35.0988 18.7298C35.0223 18.7469 34.95 18.7788 34.8859 18.8238C34.8218 18.8688 34.7672 18.926 34.7252 18.9921C34.6832 19.0583 34.6546 19.132 34.6411 19.2092C34.6276 19.2863 34.6294 19.3654 34.6465 19.4418C34.6635 19.5183 34.6954 19.5906 34.7405 19.6547C34.7855 19.7188 34.8427 19.7734 34.9088 19.8154C34.9749 19.8574 35.0486 19.886 35.1258 19.8995L35.1243 19.9007ZM30.6308 18.667C32.0721 19.26 33.5908 19.6453 35.1258 19.8995C35.2792 19.9214 35.435 19.8827 35.5604 19.7917C35.6857 19.7006 35.7707 19.5643 35.7972 19.4117C35.8238 19.259 35.7899 19.102 35.7027 18.974C35.6154 18.8459 35.4818 18.7569 35.33 18.7257C33.8896 18.4606 32.4641 18.0803 31.1133 17.5096C30.96 17.4449 30.7874 17.4438 30.6333 17.5064C30.4792 17.569 30.3563 17.6903 30.2916 17.8436C30.2269 17.9968 30.2258 18.1695 30.2884 18.3236C30.3511 18.4777 30.4723 18.6006 30.6256 18.6653L30.6308 18.667ZM27.2775 16.4762C28.2168 17.445 29.3887 18.1561 30.6321 18.6671C30.7856 18.731 30.9582 18.7312 31.1119 18.6677C31.2655 18.6043 31.3877 18.4824 31.4515 18.3289C31.5153 18.1754 31.5155 18.0029 31.4521 17.8492C31.3887 17.6956 31.2668 17.5734 31.1133 17.5096C30.0351 17.055 29.0121 16.4352 28.1952 15.5889C28.1388 15.5212 28.0691 15.466 27.9905 15.4265C27.9118 15.387 27.8258 15.3642 27.7379 15.3594C27.65 15.3547 27.562 15.3681 27.4796 15.3989C27.3971 15.4297 27.3219 15.4772 27.2586 15.5384C27.1953 15.5996 27.1453 15.6732 27.1118 15.7546C27.0782 15.836 27.0618 15.9234 27.0636 16.0114C27.0653 16.0994 27.0853 16.1861 27.1221 16.2661C27.1589 16.3461 27.2118 16.4176 27.2775 16.4762ZM25.513 13.1298C25.7743 14.3895 26.386 15.5486 27.2775 16.4762C27.3978 16.5858 27.5553 16.6469 27.7181 16.6444C27.8809 16.6419 28.0367 16.5775 28.1537 16.4643C28.2706 16.351 28.34 16.1974 28.3478 16.0348C28.3555 15.8722 28.3009 15.7127 28.1952 15.5889C27.4729 14.8317 26.9782 13.8867 26.7674 12.8618C26.7258 12.7018 26.624 12.5641 26.4834 12.4774C26.3428 12.3906 26.1741 12.3615 26.0125 12.3961C25.8509 12.4306 25.7089 12.5263 25.6161 12.663C25.5232 12.7997 25.4868 12.967 25.5143 13.1299L25.513 13.1298ZM25.7008 9.26146C25.3095 10.5134 25.2393 11.8455 25.5143 13.1299C25.5281 13.2157 25.5593 13.2979 25.6058 13.3713C25.6523 13.4447 25.7133 13.5079 25.785 13.557C25.8567 13.6061 25.9377 13.6401 26.023 13.657C26.1082 13.6739 26.196 13.6732 26.281 13.6551C26.3661 13.637 26.4465 13.6018 26.5175 13.5517C26.5885 13.5015 26.6485 13.4375 26.694 13.3634C26.7395 13.2893 26.7694 13.2068 26.782 13.1208C26.7946 13.0348 26.7897 12.9458 26.7674 12.8618C26.5412 11.7916 26.5916 10.6827 26.9139 9.63751C26.9638 9.47664 26.9477 9.30256 26.8692 9.15355C26.7907 9.00453 26.6563 8.89281 26.4954 8.84294C26.3345 8.79307 26.1604 8.80915 26.0114 8.88764C25.8624 8.96613 25.7507 9.1006 25.7008 9.26146ZM25.7008 9.26146C25.6502 9.42227 25.6656 9.59659 25.7436 9.74606C25.8215 9.89553 25.9557 10.0079 26.1165 10.0585C26.2773 10.1091 26.4516 10.0937 26.6011 10.0157C26.7505 9.93777 26.8629 9.80364 26.9135 9.64283L26.9139 9.63751C27.2274 8.61456 27.8204 7.70573 28.6474 7.02499C28.7679 6.92274 28.8437 6.77752 28.8587 6.62022C28.8738 6.46292 28.8269 6.30596 28.728 6.18273C28.6291 6.0595 28.486 5.97972 28.3291 5.96037C28.1723 5.94102 28.0141 5.98363 27.8882 6.07912C26.853 6.89329 26.0901 8.00325 25.7008 9.26146ZM28.6474 7.02499C29.4677 6.34014 30.4328 5.85051 31.4699 5.59303C31.6129 5.55559 31.7357 5.46385 31.8122 5.33731C31.8887 5.21077 31.9128 5.05939 31.8794 4.91535C31.8461 4.77131 31.7578 4.64596 31.6335 4.56593C31.5092 4.4859 31.3586 4.4575 31.2136 4.48677C30.0001 4.76251 28.8639 5.30663 27.8882 6.07912C27.8236 6.12811 27.7695 6.18955 27.7291 6.25981C27.6886 6.33007 27.6627 6.40772 27.6527 6.48818C27.6428 6.56864 27.6491 6.65028 27.6713 6.72826C27.6934 6.80625 27.731 6.879 27.7817 6.94222C27.8325 7.00544 27.8954 7.05786 27.9667 7.09636C28.0381 7.13486 28.1164 7.15867 28.1971 7.16639C28.2778 7.17411 28.3592 7.16556 28.4366 7.14128C28.5139 7.11699 28.5856 7.07745 28.6474 7.02499ZM31.4699 5.59303C32.4458 5.34807 33.4614 5.30469 34.4546 5.46555C34.5926 5.49117 34.7352 5.46092 34.8509 5.38143C34.9666 5.30194 35.046 5.17974 35.0717 5.0417C35.0973 4.90366 35.067 4.7611 34.9876 4.64538C34.9081 4.52965 34.7859 4.45023 34.6478 4.42461C33.5116 4.20694 32.3425 4.22814 31.215 4.48688C31.1389 4.50016 31.0663 4.52882 31.0017 4.5711C30.9371 4.61338 30.8818 4.66839 30.8391 4.73277C30.7965 4.79716 30.7674 4.86957 30.7537 4.94556C30.74 5.02156 30.7419 5.09956 30.7594 5.17479C30.7768 5.25002 30.8094 5.3209 30.8552 5.3831C30.901 5.44529 30.959 5.4975 31.0256 5.53654C31.0922 5.57557 31.1661 5.60059 31.2428 5.6101C31.3194 5.6196 31.3972 5.61337 31.4713 5.5918L31.4699 5.59303ZM34.4546 5.46555C35.2487 5.60221 36.0373 5.90165 36.6169 6.48078C36.7148 6.57114 36.8439 6.62013 36.9771 6.61747C37.1103 6.61481 37.2373 6.56072 37.3316 6.46652C37.4258 6.37232 37.48 6.24533 37.4827 6.11211C37.4854 5.97889 37.4365 5.84978 37.3462 5.75182L37.3413 5.74606C36.6086 5.02982 35.6415 4.62329 34.6493 4.42339C34.5809 4.41062 34.5107 4.41143 34.4427 4.42578C34.3747 4.44014 34.3101 4.46775 34.2528 4.50704C34.1369 4.58639 34.0574 4.70851 34.0316 4.84653C34.0058 4.98455 34.0359 5.12718 34.1152 5.24302C34.1946 5.35886 34.3166 5.43975 34.4546 5.46555ZM36.6169 6.48078C37.1544 7.01764 37.2036 7.79635 37.0778 8.5084C37.0627 8.57921 37.0621 8.65231 37.0759 8.72337C37.0897 8.79443 37.1177 8.862 37.1581 8.92205C37.1985 8.98209 37.2506 9.03339 37.3113 9.07291C37.3719 9.11242 37.4399 9.13933 37.5111 9.15205C37.5824 9.16477 37.6555 9.16303 37.7261 9.14694C37.7966 9.13085 37.8633 9.10073 37.922 9.05838C37.9807 9.01603 38.0302 8.96231 38.0678 8.90041C38.1053 8.83851 38.13 8.76971 38.1404 8.69807L38.1413 8.68744C38.309 7.63101 38.1335 6.51941 37.3413 5.74606C37.2433 5.65307 37.1126 5.60224 36.9775 5.6045C36.8424 5.60676 36.7136 5.66193 36.6188 5.75815C36.5239 5.85436 36.4705 5.98395 36.4702 6.11907C36.4698 6.2542 36.5225 6.38407 36.6169 6.48078ZM36.3563 12.5359C37.175 11.3902 37.9189 10.0966 38.1413 8.68744C38.157 8.55007 38.1194 8.41191 38.0363 8.30143C37.9531 8.19095 37.8308 8.11657 37.6944 8.09362C37.5581 8.07066 37.4181 8.10088 37.3034 8.17805C37.1887 8.25522 37.1079 8.37346 37.0778 8.5084C36.8565 9.74235 36.1624 10.8702 35.4323 11.8667C35.388 11.9272 35.356 11.9958 35.3381 12.0686C35.3203 12.1415 35.3169 12.2171 35.3283 12.2912C35.3397 12.3653 35.3656 12.4365 35.4044 12.5006C35.4433 12.5647 35.4944 12.6205 35.5549 12.6649C35.6154 12.7093 35.684 12.7413 35.7568 12.7591C35.8296 12.777 35.9053 12.7803 35.9794 12.7689C36.0535 12.7576 36.1246 12.7317 36.1888 12.6928C36.2529 12.6539 36.3087 12.6028 36.3531 12.5424L36.3563 12.5359ZM32.2461 16.3832C33.8099 15.3354 35.2576 14.0745 36.3563 12.5359C36.445 12.4132 36.4827 12.2604 36.4587 12.1109C36.4347 11.9614 36.3523 11.8275 36.2296 11.7388C36.1069 11.65 35.954 11.6136 35.8045 11.6376C35.655 11.6616 35.5211 11.744 35.4323 11.8667C34.3978 13.2768 33.0361 14.4204 31.5753 15.3711C31.4459 15.4615 31.3568 15.5987 31.3267 15.7536C31.2966 15.9086 31.328 16.0692 31.4142 16.2015C31.5004 16.3337 31.6346 16.4273 31.7885 16.4623C31.9425 16.4974 32.104 16.4712 32.2389 16.3893L32.2461 16.3832ZM25.9541 19.5C28.1491 18.6823 30.297 17.6895 32.2461 16.3832C32.3745 16.2917 32.4622 16.1553 32.4909 16.0004C32.5197 15.8454 32.4872 15.6853 32.4002 15.5539C32.3132 15.4224 32.1786 15.3299 32.0247 15.2958C31.8708 15.2617 31.7097 15.2887 31.5753 15.3711C29.689 16.5983 27.6218 17.5375 25.5152 18.321C25.3589 18.3792 25.2321 18.4972 25.1627 18.6489C25.0933 18.8006 25.087 18.9736 25.1452 19.1299C25.2034 19.2863 25.3213 19.4131 25.473 19.4825C25.6247 19.5519 25.7978 19.5582 25.9541 19.5ZM18.3567 21.5788C20.9459 21.113 23.4885 20.4174 25.9541 19.5C26.0314 19.4712 26.1023 19.4275 26.1628 19.3714C26.2232 19.3153 26.272 19.2478 26.3063 19.1728C26.3407 19.0978 26.3599 19.0168 26.363 18.9343C26.366 18.8519 26.3528 18.7697 26.324 18.6924C26.2953 18.6151 26.2516 18.5442 26.1955 18.4837C26.1393 18.4233 26.0718 18.3745 25.9968 18.3402C25.9219 18.3058 25.8408 18.2866 25.7584 18.2836C25.676 18.2805 25.5938 18.2937 25.5165 18.3225C23.121 19.2139 20.6508 19.8901 18.1352 20.3429C18.0541 20.3576 17.9766 20.388 17.9072 20.4326C17.8378 20.4772 17.7779 20.535 17.7309 20.6027C17.6838 20.6704 17.6506 20.7467 17.6331 20.8273C17.6155 20.9079 17.614 20.9911 17.6286 21.0723C17.6433 21.1534 17.6738 21.2309 17.7183 21.3003C17.7629 21.3697 17.8207 21.4296 17.8884 21.4766C17.9561 21.5237 18.0325 21.5569 18.113 21.5744C18.1936 21.592 18.2755 21.5934 18.3567 21.5788ZM10.8909 22.5192C13.3959 22.352 15.8862 22.0231 18.3567 21.5788C18.4378 21.5641 18.5166 21.5338 18.586 21.4892C18.6554 21.4446 18.7153 21.3868 18.7623 21.3191C18.8094 21.2514 18.8426 21.1751 18.8602 21.0945C18.8777 21.0139 18.8792 20.9307 18.8646 20.8495C18.8499 20.7684 18.8195 20.6909 18.7749 20.6215C18.7303 20.5521 18.6725 20.4922 18.6048 20.4452C18.5371 20.3981 18.4608 20.3649 18.3802 20.3473C18.2996 20.3298 18.2164 20.3283 18.1352 20.3429C15.7137 20.7874 13.2675 21.0853 10.81 21.2348C10.7232 21.2368 10.6378 21.2562 10.5587 21.292C10.4797 21.3278 10.4087 21.3792 10.35 21.4431C10.2913 21.507 10.2462 21.5822 10.2173 21.664C10.1883 21.7458 10.1762 21.8326 10.1817 21.9192C10.1872 22.0058 10.21 22.0904 10.249 22.1679C10.288 22.2454 10.3422 22.3143 10.4085 22.3703C10.4747 22.4263 10.5516 22.4684 10.6345 22.494C10.7174 22.5196 10.8046 22.5282 10.8909 22.5192ZM4.56367 22.41C6.65911 22.6812 8.78674 22.6607 10.8909 22.5192C10.9753 22.5139 11.0579 22.492 11.1339 22.4548C11.2098 22.4176 11.2777 22.3658 11.3337 22.3023C11.3896 22.2389 11.4325 22.165 11.4599 22.085C11.4873 22.005 11.4987 21.9204 11.4934 21.8359C11.488 21.7515 11.4662 21.669 11.429 21.593C11.3917 21.517 11.3399 21.4491 11.2765 21.3932C11.213 21.3373 11.1392 21.2944 11.0592 21.2669C10.9791 21.2395 10.8944 21.2295 10.81 21.2348C8.79613 21.3517 6.75486 21.3472 4.75552 21.0465C4.66616 21.033 4.575 21.0372 4.48726 21.0589C4.39952 21.0805 4.31689 21.1193 4.24412 21.1729C4.17136 21.2265 4.10986 21.2939 4.06315 21.3713C4.01643 21.4487 3.98542 21.5345 3.97187 21.6239C3.95832 21.7132 3.9625 21.8044 3.98418 21.8921C4.00586 21.9799 4.04463 22.0625 4.09823 22.1352C4.15184 22.208 4.21925 22.2695 4.29662 22.3162C4.374 22.3629 4.45981 22.3939 4.54917 22.4075L4.56367 22.41Z" fill="#5EEAD4"/>
<path d="M9.69448 16.4644C9.68058 16.4997 9.67375 16.5374 9.67441 16.5754C9.67508 16.6133 9.68321 16.6508 9.69834 16.6856C9.71347 16.7203 9.73532 16.7518 9.76261 16.7782C9.78991 16.8045 9.82213 16.8253 9.85743 16.8392C9.89274 16.8531 9.93044 16.8599 9.96838 16.8592C10.0063 16.8586 10.0438 16.8504 10.0786 16.8353C10.1134 16.8202 10.1448 16.7983 10.1712 16.771C10.1975 16.7437 10.2183 16.7115 10.2322 16.6762L10.4017 16.2447C10.4252 16.1744 10.4209 16.0978 10.3896 16.0306C10.3583 15.9634 10.3024 15.9107 10.2334 15.8836C10.1644 15.8564 10.0876 15.8568 10.0189 15.8846C9.95014 15.9123 9.89469 15.9655 9.86399 16.033L9.69448 16.4644ZM10.0426 16.413L10.0452 16.4132C10.0542 16.4162 10.0634 16.4187 10.0727 16.4208L10.0845 16.4232C10.1021 16.4259 10.1199 16.4274 10.1377 16.4276C10.1458 16.4272 10.1539 16.4265 10.162 16.4256L10.1713 16.425C10.1805 16.4235 10.1896 16.4216 10.1986 16.4192L10.2055 16.4171C10.2156 16.4149 10.2257 16.4121 10.2356 16.4089C10.2583 16.4004 10.2799 16.3891 10.2999 16.3754L10.3057 16.3692C10.3214 16.3571 10.336 16.3435 10.3492 16.3287C10.3623 16.3133 10.3739 16.2968 10.3841 16.2794L10.3856 16.2768C10.4062 16.2384 10.351 16.3235 10.3554 16.3185C10.3801 16.2895 10.3988 16.256 10.4105 16.2198C10.4221 16.1836 10.4266 16.1455 10.4235 16.1076C10.4204 16.0697 10.4099 16.0327 10.3925 15.9989C10.3752 15.9651 10.3513 15.935 10.3223 15.9104L10.3199 15.9075C10.2646 15.8616 10.1943 15.8377 10.1225 15.8404C10.0507 15.8431 9.98241 15.8722 9.9307 15.9221C9.89366 15.957 9.86639 16.0009 9.85157 16.0496C9.83674 16.0982 9.83489 16.1499 9.84619 16.1995C9.85749 16.2491 9.88155 16.2949 9.91599 16.3324C9.95044 16.3698 9.99407 16.3976 10.0426 16.413ZM10.3462 16.414L10.4085 16.2266C10.4292 16.1648 10.4286 16.0979 10.4068 16.0365C10.3851 15.9751 10.3434 15.9227 10.2885 15.8877C10.2336 15.8527 10.1685 15.8371 10.1037 15.8433C10.0389 15.8495 9.97796 15.8773 9.9307 15.9221L9.78705 16.0573C9.7497 16.0931 9.72096 16.1369 9.70301 16.1854C9.68506 16.2339 9.67836 16.2858 9.68341 16.3373C9.68847 16.3887 9.70516 16.4384 9.73221 16.4824C9.75925 16.5265 9.79596 16.5638 9.83955 16.5917C9.88314 16.6195 9.93247 16.637 9.98384 16.643C10.0352 16.6489 10.0872 16.6431 10.136 16.626C10.1848 16.6089 10.2291 16.5809 10.2655 16.5442C10.3019 16.5075 10.3295 16.463 10.3462 16.414ZM9.72538 17.3513C9.86613 17.1703 10.0042 16.9891 10.1324 16.799C10.2132 16.6786 10.2999 16.5534 10.3462 16.414C10.3709 16.3417 10.3705 16.2631 10.3452 16.191C10.3199 16.1188 10.2712 16.0572 10.2067 16.0161C10.1422 15.975 10.0658 15.9567 9.98974 15.9642C9.91365 15.9717 9.84227 16.0045 9.78705 16.0573C9.53593 16.2948 9.31629 16.5723 9.09265 16.8334C9.05553 16.8745 9.02714 16.9228 9.00923 16.9752C8.99131 17.0276 8.98423 17.0831 8.98841 17.1384C8.99258 17.1936 9.00794 17.2475 9.03353 17.2966C9.05912 17.3457 9.09442 17.3892 9.1373 17.4243C9.18017 17.4594 9.22972 17.4854 9.28295 17.5008C9.33618 17.5162 9.39198 17.5206 9.44697 17.5138C9.50196 17.5069 9.55497 17.489 9.60283 17.4611C9.65069 17.4332 9.69238 17.3958 9.72538 17.3513ZM8.5022 18.8422C8.91982 18.355 9.33279 17.8593 9.72538 17.3513C9.78802 17.2669 9.81574 17.1615 9.8028 17.0572C9.78985 16.9528 9.73724 16.8574 9.65586 16.7908C9.57449 16.7242 9.47061 16.6914 9.36574 16.6994C9.26088 16.7073 9.16309 16.7553 9.09265 16.8334C8.68121 17.3104 8.25483 17.7741 7.82356 18.2321C7.7835 18.2766 7.75262 18.3286 7.73266 18.3851C7.7127 18.4416 7.70407 18.5015 7.70725 18.5614C7.71043 18.6212 7.72537 18.6798 7.75121 18.7339C7.77704 18.7879 7.81327 18.8364 7.85783 18.8764C7.90239 18.9165 7.9544 18.9474 8.0109 18.9673C8.0674 18.9873 8.12729 18.9959 8.18712 18.9927C8.24695 18.9896 8.30557 18.9746 8.35963 18.9488C8.41369 18.9229 8.46214 18.8867 8.5022 18.8422ZM6.98046 20.529C7.50093 19.9794 8.00899 19.4181 8.5022 18.8422C8.5831 18.7522 8.62494 18.6337 8.61851 18.5129C8.61208 18.392 8.5579 18.2787 8.46791 18.1978C8.37792 18.1169 8.25948 18.0751 8.13864 18.0815C8.0178 18.0879 7.90446 18.1421 7.82356 18.2321C7.3145 18.7732 6.79303 19.3027 6.2617 19.8219C6.16794 19.9173 6.11587 20.0459 6.11697 20.1796C6.11807 20.3133 6.17223 20.4411 6.26755 20.5349C6.36286 20.6286 6.49152 20.6807 6.62521 20.6796C6.75891 20.6785 6.8867 20.6243 6.98046 20.529ZM5.72702 21.7711C6.17105 21.3851 6.57731 20.9545 6.98046 20.529C7.06817 20.4327 7.1152 20.3062 7.11169 20.176C7.10817 20.0458 7.05439 19.922 6.96162 19.8306C6.86884 19.7392 6.74427 19.6872 6.61404 19.6856C6.4838 19.6841 6.35669 19.7328 6.2617 19.8219C5.8686 20.2068 5.47373 20.5969 5.03897 20.9355C4.9841 20.9808 4.93867 21.0364 4.90529 21.0992C4.87192 21.162 4.85123 21.2308 4.84444 21.3016C4.83764 21.3724 4.84487 21.4439 4.86569 21.5119C4.88651 21.5799 4.92052 21.6432 4.96578 21.6981C5.01105 21.7529 5.06669 21.7984 5.12951 21.8317C5.19233 21.8651 5.26111 21.8858 5.33192 21.8926C5.40273 21.8994 5.47417 21.8922 5.5422 21.8713C5.61022 21.8505 5.67348 21.8165 5.72836 21.7712L5.72702 21.7711ZM4.92281 22.419C5.20174 22.2173 5.46882 21.9973 5.72836 21.7712C5.83918 21.6798 5.90915 21.5481 5.92287 21.4051C5.93659 21.2621 5.89294 21.1195 5.80152 21.0087C5.71011 20.8979 5.57842 20.8279 5.43541 20.8142C5.2924 20.8004 5.1498 20.8441 5.03897 20.9355C4.7942 21.1284 4.54119 21.3105 4.28066 21.4815C4.2191 21.5236 4.16645 21.5775 4.12571 21.64C4.08497 21.7025 4.05695 21.7724 4.04324 21.8458C4.01554 21.9939 4.04783 22.147 4.13299 22.2713C4.21814 22.3956 4.34918 22.481 4.49731 22.5087C4.64543 22.5364 4.79849 22.5041 4.92281 22.419ZM3.85538 22.9982C4.22468 22.8361 4.59275 22.6565 4.92281 22.419C5.04713 22.3338 5.13255 22.2028 5.16025 22.0546C5.18794 21.9065 5.15566 21.7535 5.0705 21.6291C4.98535 21.5048 4.85429 21.4194 4.70616 21.3917C4.55804 21.364 4.40498 21.3963 4.28066 21.4815C3.99976 21.6536 3.70374 21.7997 3.39628 21.918C3.32313 21.9459 3.25633 21.9882 3.1998 22.0424C3.14326 22.0966 3.09814 22.1616 3.0671 22.2335C3.03607 22.3054 3.01973 22.3827 3.01907 22.461C3.01841 22.5393 3.03344 22.617 3.06326 22.6894C3.09308 22.7618 3.1371 22.8275 3.19271 22.8826C3.24833 22.9378 3.31441 22.9812 3.38708 23.0104C3.45975 23.0396 3.53753 23.0539 3.61582 23.0526C3.69412 23.0512 3.77136 23.0342 3.84298 23.0025L3.85404 22.9981L3.85538 22.9982ZM2.57935 23.3822C3.02067 23.3198 3.44733 23.1758 3.85538 22.9982C3.99863 22.9373 4.11183 22.822 4.17007 22.6777C4.22831 22.5334 4.22682 22.3718 4.16594 22.2285C4.10506 22.0853 3.98978 21.9721 3.84544 21.9138C3.7011 21.8556 3.53953 21.8571 3.39628 21.918C3.08178 22.0485 2.75286 22.159 2.4145 22.2059C2.25852 22.2278 2.1176 22.3107 2.02276 22.4365C1.92792 22.5622 1.88693 22.7205 1.90879 22.8765C1.93065 23.0325 2.01356 23.1734 2.13932 23.2682C2.26507 23.3631 2.42336 23.4041 2.57935 23.3822ZM1.56396 23.365C1.89253 23.4524 2.2463 23.4296 2.57935 23.3822C2.65658 23.3714 2.73093 23.3455 2.79814 23.3059C2.86536 23.2663 2.92413 23.2139 2.97109 23.1517C3.01805 23.0894 3.05228 23.0185 3.07184 22.943C3.0914 22.8675 3.09588 22.7889 3.08506 22.7117C3.07423 22.6344 3.04831 22.5601 3.00876 22.4929C2.9692 22.4256 2.9168 22.3669 2.85453 22.3199C2.79227 22.273 2.72134 22.2387 2.64585 22.2192C2.57035 22.1996 2.49174 22.1951 2.4145 22.2059C2.22628 22.2332 2.01758 22.2654 1.8281 22.2269C1.67719 22.1919 1.51855 22.2183 1.38706 22.3002C1.25558 22.3822 1.16202 22.513 1.127 22.6639C1.09197 22.8148 1.11832 22.9735 1.20026 23.105C1.28221 23.2365 1.41304 23.33 1.56396 23.365ZM1.56396 23.365C1.63804 23.3849 1.71531 23.3899 1.79135 23.3799C1.86738 23.3699 1.94068 23.345 2.0071 23.3066C2.07351 23.2683 2.13173 23.2172 2.1784 23.1564C2.22508 23.0955 2.25931 23.0261 2.27915 22.952C2.29899 22.8779 2.30404 22.8006 2.29402 22.7246C2.284 22.6486 2.25911 22.5752 2.22075 22.5088C2.1824 22.4424 2.13133 22.3842 2.07048 22.3375C2.00963 22.2909 1.94018 22.2566 1.8661 22.2368L1.85302 22.233C1.79398 22.1808 1.72465 22.1416 1.64948 22.1179C1.57432 22.0942 1.495 22.0865 1.4167 22.0954C1.33839 22.1043 1.26282 22.1296 1.1949 22.1696C1.12697 22.2095 1.06821 22.2633 1.0224 22.3275C0.928811 22.4634 0.892655 22.6309 0.921787 22.7933C0.950919 22.9558 1.04298 23.1003 1.17799 23.1953C1.29153 23.2783 1.42786 23.3283 1.56529 23.3651L1.56396 23.365ZM1.77587 23.1324L1.90986 23.1301C2.04681 23.1227 2.17597 23.0641 2.27171 22.9659C2.36746 22.8676 2.42278 22.737 2.42673 22.6C2.43067 22.4629 2.38293 22.3293 2.29299 22.2257C2.20304 22.1222 2.07747 22.0562 1.94117 22.041C1.61452 22.0273 1.23285 22.0318 1.0224 22.3275C0.946645 22.4332 0.909853 22.5619 0.918283 22.6917C0.926714 22.8215 0.979834 22.9443 1.06863 23.0394C1.15743 23.1344 1.27641 23.1957 1.40533 23.2129C1.53425 23.2301 1.66526 23.2008 1.77587 23.1324ZM1.90986 23.1301C2.25312 23.1371 2.60051 23.2234 2.93218 23.3057C3.07054 23.3403 3.21697 23.3184 3.33922 23.245C3.46146 23.1715 3.54954 23.0526 3.58406 22.9142C3.61858 22.7758 3.59672 22.6294 3.52329 22.5072C3.44986 22.3849 3.33087 22.2968 3.19251 22.2623C2.78365 22.1589 2.36515 22.0587 1.94117 22.041C1.80333 22.0456 1.67102 22.1021 1.57315 22.1993C1.47528 22.2964 1.41776 22.427 1.41211 22.5648C1.40645 22.7026 1.45308 22.8374 1.54266 22.9423C1.63223 23.0472 1.75814 23.1143 1.89513 23.1302L1.90841 23.1313L1.90986 23.1301ZM2.93218 23.3057C3.50261 23.4453 4.06287 23.6268 4.6165 23.8238C4.68444 23.8479 4.75646 23.8584 4.82843 23.8546C4.90041 23.8508 4.97094 23.833 5.036 23.8019C5.10106 23.7709 5.15936 23.7274 5.2076 23.6738C5.25583 23.6203 5.29306 23.5578 5.31713 23.4898C5.3412 23.4219 5.35166 23.3499 5.34791 23.2779C5.34415 23.2059 5.32625 23.1354 5.29523 23.0704C5.26422 23.0053 5.2207 22.947 5.16715 22.8988C5.1136 22.8505 5.05107 22.8133 4.98314 22.7892L4.97019 22.7841C4.38257 22.5937 3.79273 22.4137 3.19251 22.2623C3.12365 22.2437 3.05045 22.2389 2.97974 22.2483C2.90904 22.2578 2.84094 22.2812 2.77938 22.3172C2.71783 22.3533 2.66406 22.4012 2.62123 22.4583C2.5784 22.5153 2.54736 22.5803 2.5299 22.6495C2.51245 22.7186 2.50894 22.7906 2.51959 22.8611C2.53023 22.9316 2.55481 22.9993 2.5919 23.0603C2.62898 23.1212 2.67783 23.1741 2.73558 23.216C2.79334 23.2579 2.85886 23.2878 2.92831 23.3041L2.93218 23.3057ZM4.6165 23.8238C5.14809 24.0123 5.67814 24.2034 6.20443 24.4075C6.27464 24.4338 6.34934 24.446 6.42426 24.4434C6.49918 24.4408 6.57287 24.4235 6.6411 24.3924C6.70933 24.3614 6.77078 24.3172 6.82193 24.2624C6.87308 24.2076 6.91293 24.1432 6.93921 24.073C6.96549 24.0028 6.97768 23.9281 6.97509 23.8532C6.9725 23.7783 6.95519 23.7046 6.92413 23.6364C6.89306 23.5681 6.84886 23.5067 6.79405 23.4555C6.73924 23.4044 6.67491 23.3645 6.6047 23.3382C6.06274 23.1452 5.51784 22.9604 4.97019 22.7841C4.8336 22.7421 4.68598 22.7549 4.55869 22.8199C4.4314 22.8849 4.33443 22.9969 4.2884 23.1322C4.24237 23.2675 4.25089 23.4155 4.31215 23.5446C4.37341 23.6737 4.48259 23.7739 4.6165 23.8238ZM6.20443 24.4075C6.70347 24.6014 7.20073 24.8004 7.69656 25.0007C7.76862 25.029 7.84556 25.0428 7.92296 25.0413C8.00036 25.0399 8.07673 25.0232 8.14769 24.9922C8.21864 24.9613 8.28279 24.9166 8.3365 24.8609C8.39021 24.8051 8.43241 24.7393 8.46069 24.6673C8.48897 24.5952 8.50277 24.5183 8.50132 24.4409C8.49987 24.3635 8.48319 24.2871 8.45223 24.2162C8.42127 24.1452 8.37664 24.081 8.32088 24.0273C8.26512 23.9736 8.19933 23.9314 8.12726 23.9031C7.62136 23.7114 7.11392 23.5222 6.6047 23.3382C6.46291 23.2852 6.30582 23.2906 6.16803 23.3533C6.03023 23.4161 5.923 23.5309 5.86992 23.6727C5.81684 23.8145 5.82227 23.9716 5.885 24.1094C5.94773 24.2472 6.06263 24.3544 6.20443 24.4075ZM7.69656 25.0007C8.23503 25.2192 8.76709 25.4506 9.29063 25.704C9.36229 25.7425 9.44104 25.7662 9.52209 25.7735C9.60314 25.7808 9.68483 25.7716 9.76224 25.7465C9.83965 25.7214 9.91118 25.6808 9.9725 25.6273C10.0338 25.5738 10.0837 25.5084 10.119 25.4351C10.1544 25.3619 10.1745 25.2822 10.1783 25.2009C10.182 25.1196 10.1692 25.0384 10.1407 24.9621C10.1122 24.8859 10.0685 24.8162 10.0124 24.7573C9.95622 24.6984 9.8887 24.6515 9.81392 24.6194L9.81137 24.6179C9.26022 24.3562 8.69835 24.1178 8.12726 23.9031C7.98172 23.846 7.81945 23.8491 7.67615 23.9116C7.53285 23.9741 7.42027 24.091 7.36315 24.2366C7.30604 24.3821 7.30908 24.5444 7.37161 24.6877C7.43414 24.831 7.55102 24.9436 7.69656 25.0007ZM9.29063 25.704C9.8001 25.9495 10.3032 26.2079 10.8015 26.4753C10.9385 26.5514 11.1002 26.5699 11.2509 26.5268C11.4016 26.4837 11.5291 26.3825 11.6052 26.2455C11.6813 26.1084 11.6998 25.9467 11.6567 25.796C11.6136 25.6453 11.5124 25.5179 11.3754 25.4418C10.8646 25.1479 10.3441 24.8734 9.81137 24.6179C9.66717 24.5488 9.50154 24.5385 9.35074 24.5917C9.19994 24.6448 9.07643 24.7556 9.00737 24.8998C8.9383 25.044 8.92934 25.2098 8.98247 25.3606C9.03559 25.5114 9.14643 25.6349 9.29063 25.704ZM10.7989 26.4737C11.4365 26.8208 12.0726 27.1679 12.7011 27.5276C12.7758 27.5705 12.8628 27.587 12.9481 27.5744C13.0333 27.5619 13.1118 27.5211 13.1711 27.4585C13.2303 27.3959 13.2667 27.3153 13.2746 27.2295C13.2824 27.1437 13.2612 27.0577 13.2143 26.9854C12.7792 26.3099 12.0591 25.8288 11.3728 25.4402C11.3051 25.397 11.2293 25.3681 11.15 25.3551C11.0707 25.3422 10.9896 25.3455 10.9116 25.3649C10.8337 25.3843 10.7605 25.4194 10.6965 25.468C10.6325 25.5166 10.5791 25.5777 10.5395 25.6476C10.4999 25.7175 10.475 25.7947 10.4661 25.8745C10.4573 25.9544 10.4649 26.0352 10.4883 26.112C10.5118 26.1889 10.5506 26.2602 10.6024 26.3215C10.6543 26.3829 10.7181 26.433 10.7899 26.469L10.7989 26.4737Z" fill="#5EEAD4"/>
<path d="M65.0522 0.992676H66.2285V2.93701H68.4199V4.00586H66.2285V7.30371C67.0771 7.69401 67.9168 8.24186 68.7476 8.94727L68.146 10.0107C67.4442 9.39844 66.8014 8.91146 66.2178 8.5498C66.1533 9.42708 65.8418 10.0143 65.2832 10.3115C64.9717 10.4762 64.5456 10.5586 64.0049 10.5586C63.4176 10.5586 62.9074 10.453 62.4741 10.2417C61.8188 9.92301 61.4912 9.39307 61.4912 8.65186C61.4912 8.0682 61.7401 7.60449 62.2378 7.26074C62.6925 6.94564 63.2762 6.78809 63.9888 6.78809C64.3146 6.78809 64.6691 6.82926 65.0522 6.91162V4.00586H61.5986V2.93701H65.0522V0.992676ZM65.0522 7.95361C64.6333 7.82113 64.2609 7.75488 63.9351 7.75488C63.6235 7.75488 63.3586 7.80322 63.1401 7.8999C62.7964 8.04671 62.6245 8.28662 62.6245 8.61963C62.6245 8.89176 62.7498 9.10482 63.0005 9.25879C63.244 9.40918 63.5698 9.48438 63.978 9.48438C64.6942 9.48438 65.0522 9.08154 65.0522 8.27588V7.95361ZM59.2192 10.5371C59.0939 9.35547 59.0312 8.11296 59.0312 6.80957C59.0312 4.77572 59.1673 2.83675 59.4395 0.992676L60.6211 1.16455C60.3525 2.75439 60.2183 4.47314 60.2183 6.3208C60.2183 7.6779 60.2863 9.02246 60.4224 10.3545L59.2192 10.5371ZM71.4868 1.39551C71.7733 1.97917 72.0991 2.69173 72.4644 3.5332C72.8188 3.4043 73.2736 3.25033 73.8286 3.07129C74.1294 2.97461 74.3568 2.9012 74.5107 2.85107C74.2601 2.25667 73.9933 1.71777 73.7104 1.23438L74.6987 0.858398C75.0246 1.39193 75.3218 1.96842 75.5903 2.58789C76.0594 2.49121 76.4569 2.44287 76.7827 2.44287C77.4631 2.44287 78.0181 2.61475 78.4478 2.9585C78.5122 3.01221 78.5677 3.06413 78.6143 3.11426C79.0977 3.62988 79.3394 4.24219 79.3394 4.95117C79.3394 6.05046 78.915 6.83643 78.0664 7.30908C77.5651 7.59196 76.7756 7.79248 75.6978 7.91064L75.2573 6.91162C76.2456 6.82926 76.9797 6.63949 77.4595 6.34229C77.8927 6.07731 78.1094 5.60286 78.1094 4.91895C78.1094 4.47493 77.993 4.1276 77.7603 3.87695C77.5239 3.61914 77.1945 3.49023 76.772 3.49023C76.5822 3.49023 76.3244 3.51888 75.9985 3.57617C76.1668 4.02018 76.3315 4.50716 76.4927 5.03711L75.4561 5.53662C75.2699 4.88493 75.0908 4.32275 74.9189 3.8501C74.2852 4.03271 73.6066 4.25651 72.8833 4.52148C73.7427 6.62695 74.4499 8.57845 75.0049 10.376L73.8931 10.7466C73.313 8.83805 72.613 6.89551 71.793 4.91895L71.5996 4.99414C70.776 5.30924 70.1924 5.53662 69.8486 5.67627L69.4512 4.60742L69.6016 4.55371C70.4287 4.24935 71.0195 4.03271 71.374 3.90381C71.0339 3.11247 70.708 2.39811 70.3965 1.76074L71.4868 1.39551ZM85.543 7.60986C84.8805 9.55778 84.1375 10.5317 83.314 10.5317C82.7267 10.5317 82.2236 10.12 81.8047 9.29639C81.4824 8.65902 81.2604 7.95719 81.1387 7.19092C80.9919 6.25993 80.9185 5.06396 80.9185 3.60303C80.9185 2.96924 80.9417 2.2889 80.9883 1.56201L82.2505 1.65869C82.2039 2.38558 82.1807 3.07666 82.1807 3.73193C82.1807 6.03076 82.3955 7.63314 82.8252 8.53906C83.0007 8.91146 83.1654 9.09766 83.3193 9.09766C83.4196 9.09766 83.5449 8.98307 83.6953 8.75391C84.0033 8.28841 84.3005 7.64746 84.5869 6.83105L85.543 7.60986ZM88.9429 8.88818C88.7603 7.37712 88.5365 6.15609 88.2715 5.2251C87.9492 4.09717 87.575 3.06413 87.1489 2.12598L88.293 1.84668C88.8838 3.01758 89.3224 4.14551 89.6089 5.23047C89.8452 6.11133 90.0404 7.2321 90.1943 8.59277L88.9429 8.88818Z" fill="#5EEAD4"/>
</svg>
